<svg width="105" height="105" viewBox="0 0 105 105" fill="none" xmlns="http://www.w3.org/2000/svg">
<g clip-path="url(#clip0_127_163)">
<path d="M46.6044 104.66C45.0434 104.474 43.406 104.234 42.9672 104.126C42.3213 103.972 41.6717 103.836 41.0189 103.715C40.2734 103.571 39.5338 103.398 38.8016 103.196C35.4014 102.222 35.1578 102.142 32.5943 101.094C30.2359 100.132 25.8907 97.8862 24.4043 96.8641C23.9974 96.5819 23.6168 96.3547 23.5586 96.3547C23.5011 96.3547 22.5496 95.6853 21.4438 94.8675C14.4137 89.6642 9.13582 83.3478 5.32219 75.568C4.66594 74.2317 4.13027 73.0463 4.13027 72.9348C4.13027 72.8248 4.01215 72.5205 3.86777 72.2646C3.57 71.7322 3.1459 70.5854 2.80383 69.4C2.65675 68.8964 2.48566 68.4001 2.29113 67.9128C2.13117 67.5355 2.00238 67.0761 2.00238 66.8907C2.00238 66.7045 1.84242 66.0991 1.64719 65.5413C1.45195 64.9876 1.29445 64.3338 1.29445 64.0893C1.29445 63.8465 1.14105 63.0065 0.951562 62.2223C0.490547 60.2864 0 55.2718 0 52.4614C0 49.6543 0.490547 44.6397 0.951562 42.7046C1.14023 41.9196 1.29445 41.064 1.29445 40.8015C1.29445 40.5382 1.4134 40.0222 1.55695 39.653C1.70461 39.2855 1.89328 38.6252 1.98023 38.1863C2.07047 37.7475 2.27555 36.9911 2.44207 36.5006L2.92605 35.0847C3.28125 34.0241 3.61102 33.1266 3.76852 32.7772C3.85875 32.582 4.21066 31.7846 4.55356 31.0053C5.10809 29.7461 6.29672 27.3713 6.99152 26.1286C7.245 25.6733 7.34098 25.5223 8.71254 23.3789C10.8855 19.9762 14.5991 15.7426 18.0559 12.7246C19.2741 11.6607 23.3436 8.57141 23.5266 8.57141C23.5774 8.57141 23.9613 8.3409 24.3821 8.05871C25.4871 7.31879 26.5707 6.69043 27.9833 5.9825C28.4904 5.73173 28.9925 5.47109 29.4894 5.20074C29.7232 5.06621 30.1621 4.86441 32.4155 3.85543C32.9118 3.63394 33.4466 3.43215 34.988 2.8932C35.3276 2.77508 36.0101 2.52488 36.4973 2.34195C36.9879 2.15984 37.5646 2.00891 37.7795 2.00891C37.9911 2.00891 38.5481 1.86125 39.0165 1.67914C39.4841 1.49621 40.3331 1.28785 40.9065 1.2173C41.4775 1.15004 42.2363 0.990078 42.5923 0.86457C42.945 0.743164 43.913 0.585664 44.7423 0.515938C45.8232 0.418281 46.9012 0.291085 47.9752 0.134492C50.1802 -0.188711 54.9741 -0.188711 57.1561 0.134492C58.1867 0.28239 59.2209 0.404109 60.2577 0.499531C61.0395 0.564336 62.0361 0.727578 62.475 0.862109C62.9139 0.993359 63.6735 1.15742 64.1607 1.2173C64.648 1.28211 65.4683 1.48391 65.9835 1.6693C66.5003 1.85797 67.086 2.00891 67.2878 2.00891C67.4896 2.00891 67.9063 2.12129 68.2106 2.26238C68.5182 2.4002 69.1687 2.6307 69.6593 2.77508C70.1466 2.92273 70.9825 3.21394 71.5214 3.42887C72.0563 3.64297 72.774 3.92516 73.1169 4.05312C73.7486 4.29102 78.4161 6.62645 79.051 7.0243C84.2034 10.2375 86.8539 12.3366 90.4173 16.0182C94.7141 20.4594 97.5663 24.6889 100.469 30.9151C100.674 31.3548 100.988 32.0053 101.168 32.3572C101.344 32.7132 101.492 33.1299 101.492 33.2841C101.492 33.44 101.639 33.9076 101.821 34.3251C102.315 35.4596 102.738 36.7508 102.937 37.7376C103.035 38.2216 103.218 38.8204 103.343 39.0673C103.468 39.3134 103.615 39.9393 103.674 40.452C103.731 40.9639 103.901 41.8039 104.045 42.3133C104.882 45.2098 105.298 53.7436 104.792 57.5178C104.642 58.6392 104.472 59.9952 104.414 60.53C104.318 61.4463 103.834 63.8145 103.42 65.4068L102.994 67.0925C102.19 70.3385 100.203 74.9626 97.7771 79.2405C96.8157 80.9386 93.5927 85.5307 92.9841 86.0688C92.9291 86.1164 92.6568 86.4379 92.3811 86.7767C92.1055 87.1196 91.2212 88.0777 90.4206 88.9046C86.8924 92.5476 84.0468 94.8002 79.051 97.9026C78.4588 98.2709 73.4344 100.725 72.4951 101.107C72.0079 101.302 71.1941 101.632 70.688 101.837C70.1851 102.039 69.624 102.209 69.4477 102.213C69.2713 102.215 68.807 102.372 68.4157 102.561C68.0252 102.75 67.5281 102.907 67.3075 102.911C67.0893 102.914 66.4519 103.068 65.8908 103.254C65.3305 103.442 64.5512 103.645 64.1599 103.705C63.7695 103.766 62.9336 103.933 62.2986 104.074C61.6645 104.215 59.7475 104.491 58.0437 104.686C54.243 105.129 50.4031 105.121 46.6044 104.66ZM50.4623 94.4064C50.7084 94.2145 50.9619 93.8322 51.0292 93.564C51.1768 92.9709 75.0102 45.1902 75.4589 44.5913C75.8371 44.0852 75.8723 43.2747 75.5262 42.9893C75.3441 42.8359 73.062 42.7875 66.9703 42.7973C62.4012 42.8071 58.5597 42.8104 58.4341 42.8071C58.2488 42.8006 58.2102 39.7474 58.2291 26.67C58.2422 17.7966 58.2004 10.4557 58.1364 10.3539C58.0724 10.2506 57.8222 10.1677 57.5786 10.1677C57.2357 10.1677 57.0757 10.3154 56.8649 10.8305C56.467 11.7887 55.3678 13.9641 50.0169 24.3534C48.9054 26.5094 47.7966 28.6669 46.6905 30.8257C45.7423 32.6812 44.246 35.5941 43.3707 37.2979C41.0148 41.8779 38.6638 46.4605 36.3177 51.0455C32.2711 58.9501 31.7814 59.8926 31.6075 60.101C31.2711 60.5079 31.0882 61.4463 31.2777 61.799C31.45 62.1222 31.7937 62.1354 40.3364 62.1222C45.2197 62.1165 49.2475 62.1419 49.2893 62.1796C49.4017 62.2953 49.3598 92.7855 49.2442 93.5123C49.1679 93.9897 49.2188 94.2424 49.437 94.4606C49.8143 94.8388 49.9177 94.8355 50.4623 94.4064Z" fill="#049688"/>
</g>
<defs>
<clipPath id="clip0_127_163">
<rect width="105" height="105" fill="white"/>
</clipPath>
</defs>
</svg>
