<svg width="177" height="177" viewBox="0 0 177 177" fill="none" xmlns="http://www.w3.org/2000/svg">
<path d="M156.42 36.0443C127.451 -1.46861 73.5532 -8.39373 36.0389 20.5803C-1.46992 49.5544 -8.38813 103.452 20.5859 140.961C49.5655 178.468 103.468 185.383 140.971 156.403C178.464 127.429 185.384 73.5476 156.42 36.0443Z" fill="#F37036"/>
<path d="M125.944 33.4143C122.989 33.6504 120.188 34.826 117.95 36.769C115.33 39.0435 113.658 42.2175 113.263 45.6646C112.869 49.1116 113.782 52.5812 115.82 55.3886C117.856 58.1971 120.871 60.1407 124.269 60.8357C127.668 61.5307 131.203 60.9267 134.178 59.1429H134.181L134.397 59.3586C135.377 58.7969 136.288 58.1241 137.114 57.3535C139.661 54.6596 141.062 51.082 141.021 47.3751C140.981 43.6683 139.503 40.1219 136.898 37.4839V37.4811L124.669 49.6347L124.453 49.4203L136.683 37.2613C135.267 35.8964 133.578 34.8479 131.726 34.1851C129.875 33.5224 127.904 33.2606 125.944 33.4171V33.4143ZM109.842 53.3088C103.979 53.2991 94.406 59.9449 71.0309 83.32L71.1471 83.4389C71.0199 83.3947 70.8913 83.3905 70.8913 83.3905L62.091 92.1133C61.8651 92.3282 61.7155 92.6111 61.6651 92.9189C61.6146 93.2267 61.6661 93.5425 61.8117 93.8184C61.9573 94.0942 62.189 94.3149 62.4716 94.447C62.7541 94.579 63.0721 94.6151 63.3771 94.5498L78.4691 91.3306C78.5357 91.268 78.5803 91.1856 78.5963 91.0955L78.9309 91.4412L73.7869 96.5438H73.538L42.9972 127.325L52.7958 136.762C53.0698 137.009 53.4155 137.162 53.7826 137.199C54.1496 137.236 54.5189 137.155 54.8368 136.968C55.1575 136.782 55.4143 136.503 55.5735 136.168C55.7327 135.834 55.7868 135.459 55.7287 135.092L54.2975 128.87C54.2083 128.745 54.1603 128.595 54.1603 128.441C54.1603 128.287 54.2083 128.138 54.2975 128.012C67.6751 121.635 80.1154 113.454 91.2712 103.698L85.0001 97.4247L85.119 97.4053L81.3993 93.6869L81.6371 93.4463L81.8888 93.7035L81.7588 93.8294L91.6279 103.914V103.91C110.545 85.9971 123.972 71.5979 120.48 61.9071C120.321 60.7483 119.783 59.6747 118.95 58.8539V58.8594C118.738 58.7017 118.515 58.5603 118.282 58.4363C118.167 58.3146 118.066 58.1901 117.944 58.0712L117.853 58.1625C117.597 58.0059 117.327 57.8718 117.048 57.7615L117.448 57.3577C114.964 55.1452 112.912 53.3143 109.842 53.306V53.3088ZM42.7842 127.509L35.6337 134.661V134.667C35.3771 134.825 35.1777 135.062 35.0641 135.341C34.9505 135.621 34.9287 135.929 35.0018 136.222C35.0723 136.515 35.2333 136.778 35.462 136.974C35.6907 137.17 35.9753 137.289 36.2753 137.313L53.7983 138.523L42.7842 127.509Z" fill="white"/>
<path d="M127.15 32.2334C123.136 32.2284 119.282 33.8031 116.42 36.6169C114.384 38.7008 112.99 41.3262 112.404 44.1803C111.818 47.0343 112.065 49.9966 113.115 52.7142C106.56 49.9071 97.6902 54.8023 70.1017 82.3853C70.0823 82.4276 70.0652 82.471 70.0505 82.5152C69.9942 82.5408 69.9392 82.5695 69.886 82.601L61.1618 91.4012C60.7436 91.8116 60.469 92.346 60.3785 92.9249C60.2881 93.5038 60.3868 94.0964 60.6598 94.6148C60.9036 95.025 61.2487 95.3656 61.6621 95.6039C62.0755 95.8422 62.5432 95.9702 63.0203 95.9755L63.4531 95.6948L75.1019 93.2099L69.5292 98.8338C69.4967 98.9076 69.4717 98.9845 69.4545 99.0634L42.144 126.442C42.0351 126.533 41.9449 126.645 41.8785 126.771L34.8455 133.809C34.495 134.179 34.2555 134.64 34.1543 135.14C34.053 135.639 34.0942 136.157 34.273 136.634C34.4564 137.109 34.7673 137.523 35.1714 137.832C35.5755 138.14 36.0571 138.331 36.5629 138.384L54.0113 139.601C54.3089 139.496 54.5623 139.294 54.7303 139.027C54.8803 138.818 54.961 138.568 54.961 138.311C54.961 138.054 54.8803 137.804 54.7303 137.595L54.6944 137.561C55.0709 137.363 55.4027 137.09 55.6693 136.759C55.9495 136.395 56.1452 135.974 56.2423 135.525C56.3395 135.076 56.3355 134.612 56.2307 134.165L54.87 128.375C67.9243 122.136 80.1557 114.305 91.285 105.059C91.393 105.121 91.5082 105.168 91.6279 105.202C91.9792 105.175 92.3083 105.025 92.5572 104.776C111.294 87.0343 122.308 74.8766 122.308 65.2245C122.349 63.8857 122.147 62.5505 121.712 61.2835C123.401 61.9837 125.202 62.3726 127.029 62.4313L127.009 62.4368C129.525 62.3599 131.985 61.6717 134.176 60.4317C134.178 60.4322 134.179 60.4326 134.181 60.4331C134.465 60.5181 134.77 60.4909 135.034 60.357C136.092 59.7345 137.055 58.9654 137.897 58.0726C139.323 56.6735 140.456 55.0041 141.229 53.1622C142.003 51.3202 142.401 49.3426 142.402 47.3448C142.402 45.3471 142.003 43.3695 141.23 41.5275C140.457 39.6856 139.324 38.0162 137.898 36.6169C137.847 36.5707 137.793 36.5286 137.735 36.4911C134.889 33.7579 131.095 32.2326 127.148 32.2348L127.15 32.2334ZM127.029 34.6838C129.824 34.7004 132.536 35.6298 134.754 37.3305L123.597 48.5547C123.559 48.5973 123.524 48.6426 123.492 48.6903C123.291 48.8937 123.173 49.165 123.162 49.4508C123.162 49.6235 123.201 49.794 123.275 49.9496C123.35 50.1052 123.459 50.2419 123.594 50.3496H123.597L132.032 58.7848C129.723 59.7916 127.164 60.0778 124.69 59.6058C122.216 59.1338 119.942 57.9256 118.165 56.1395C114.59 52.5442 113.552 47.1457 115.465 42.4621C117.377 37.7743 121.936 34.7114 127.029 34.6838ZM136.875 39.4296C138.699 41.6366 139.694 44.4123 139.686 47.2756C139.681 50.6301 138.344 53.8452 135.969 56.2141C135.493 56.6621 134.986 57.0757 134.451 57.4518L127.643 50.7493L126.312 49.4176L126.678 49.0512L136.874 39.4268L136.875 39.4296ZM136.369 45.2277C136.119 45.1486 135.848 45.1639 135.608 45.2706C135.371 45.3934 135.192 45.6052 135.11 45.8596C135.07 45.9867 135.056 46.1204 135.068 46.2531C135.08 46.3857 135.118 46.5147 135.18 46.6326C135.425 47.1492 135.522 47.7241 135.46 48.2928C135.397 48.8614 135.177 49.4013 134.824 49.8518C134.734 49.9388 134.663 50.044 134.617 50.1603C134.57 50.2766 134.549 50.4015 134.555 50.5266C134.56 50.7811 134.651 51.0244 134.824 51.207C135.009 51.2774 135.212 51.2774 135.397 51.207C135.563 51.2485 135.737 51.2437 135.901 51.1933C136.065 51.1428 136.212 51.0486 136.326 50.9207C136.914 50.1992 137.287 49.3261 137.401 48.402C137.514 47.478 137.365 46.5406 136.969 45.6979V45.7034C136.834 45.4765 136.62 45.3072 136.369 45.2277ZM109.712 54.5243C111.381 54.5797 112.987 55.1745 114.289 56.2197C112.886 56.4216 111.586 57.0716 110.582 58.0726L79.0443 89.4694L72.8549 83.2799C89.2108 67.0015 99.2113 58.4986 105.428 55.7122C106.709 54.9044 108.199 54.4922 109.712 54.5243ZM115.195 58.6175C116.254 58.6175 117.27 59.0372 118.02 59.7846C118.42 60.159 118.735 60.6143 118.944 61.12C119.154 61.6257 119.253 62.1703 119.236 62.7175C119.218 63.2626 119.087 63.7982 118.853 64.2907C118.619 64.7832 118.285 65.2221 117.874 65.5799L84.3405 94.7656L80.7217 91.1468L112.37 59.7846C113.121 59.0377 114.136 58.6172 115.195 58.6175ZM119.335 67.8796C116.998 77.1472 104.613 89.7045 91.6971 101.906L86.4742 96.6891L119.335 67.8796ZM71.0309 85.108L71.4098 85.4814L76.2676 90.3392L62.9512 93.1878L71.0309 85.108ZM79.0416 93.1836L79.0471 93.1892L80.6622 94.8416C80.669 94.8807 80.6773 94.9194 80.6871 94.9578L80.795 94.9744L81.1379 95.3256L82.2718 96.4872L74.8254 97.3998L79.0429 93.1823L79.0416 93.1836ZM84.3889 98.82L89.3366 103.765C78.3962 112.862 66.3906 120.596 53.584 126.797C53.1682 126.995 52.8339 127.331 52.638 127.748C52.4421 128.165 52.3967 128.636 52.5095 129.083L53.9408 135.305C53.9935 135.379 54.0219 135.466 54.0219 135.556C54.0219 135.647 53.9935 135.734 53.9408 135.807C53.8621 135.878 53.7602 135.917 53.6545 135.917C53.5488 135.917 53.4469 135.878 53.3683 135.807L44.9303 127.3L70.9383 100.911L84.3889 98.82ZM42.9972 129.159L44.1988 130.285L50.4104 136.496L36.5602 135.6L42.9972 129.159Z" fill="#F37036"/>
</svg>
