<svg width="114" height="122" viewBox="0 0 114 122" fill="none" xmlns="http://www.w3.org/2000/svg">
<path d="M103.396 0H10.1659C4.56591 0.0102036 0.0252873 4.5384 0 10.1375V111.539C0.0257309 117.141 4.56945 121.672 10.1717 121.68H103.402C109.004 121.671 113.547 117.14 113.571 111.539V106.809C113.401 100.723 113.23 88.0485 113.23 82.303C113.23 79.091 110.858 76.3871 107.807 76.3871C104.415 76.3871 102.212 78.4158 100.519 80.1039C95.4328 84.6693 87.8041 85.5149 81.1912 84.3317C78.1434 83.6534 75.2598 82.8109 72.8903 81.2901C65.5992 77.0623 60.854 69.1208 60.854 60.6713C60.854 52.2213 65.5992 44.4475 72.8872 40.0519C75.4302 38.5311 78.3138 37.6856 81.1943 37.0104C87.6368 35.8272 95.4328 36.6697 100.519 41.2351C102.383 42.9263 104.585 44.9519 107.807 44.9519C110.858 44.9519 113.23 42.2479 113.23 39.036C113.23 33.4608 113.401 20.6162 113.571 14.5326V10.1375C113.571 4.56236 108.993 0 103.399 0H103.396Z" fill="#F46A54"/>
</svg>
