<svg width="92" height="92" viewBox="0 0 92 92" fill="none" xmlns="http://www.w3.org/2000/svg">
<g clip-path="url(#clip0_127_111)">
<path d="M19.5895 58.0167C19.5895 63.2851 15.2929 67.5883 10.0237 67.5883C4.75454 67.5883 0.45282 63.2851 0.45282 58.0167C0.45282 52.7482 4.75598 48.4451 10.0244 48.4451H19.5903L19.5895 58.0167ZM24.4116 58.0167C24.4116 52.7482 28.7148 48.4451 33.9832 48.4451C39.2517 48.4451 43.5548 52.7475 43.5548 58.0167V81.9762C43.5548 87.2446 39.2524 91.5478 33.9832 91.5478C28.7148 91.5478 24.4116 87.2446 24.4116 81.9762V58.0167Z" fill="#DE1C59"/>
<path d="M33.9832 19.5896C28.7148 19.5896 24.4116 15.2929 24.4116 10.0238C24.4116 4.7546 28.7148 0.452881 33.9832 0.452881C39.2517 0.452881 43.5548 4.75604 43.5548 10.0245V19.5903L33.9832 19.5896ZM33.9832 24.4117C39.2517 24.4117 43.5548 28.7148 43.5548 33.9833C43.5548 39.2517 39.2524 43.5549 33.9832 43.5549H10.0237C4.75526 43.5549 0.45282 39.2524 0.45282 33.9833C0.45282 28.7148 4.75598 24.4117 10.0244 24.4117H33.9832Z" fill="#35C5F0"/>
<path d="M72.4105 33.9833C72.4105 28.7148 76.7072 24.4117 81.9763 24.4117C87.2455 24.4117 91.5479 28.7148 91.5479 33.9833C91.5479 39.2517 87.2448 43.5549 81.9763 43.5549H72.4105V33.9833ZM67.5884 33.9833C67.5884 39.2517 63.2852 43.5549 58.0168 43.5549C52.7483 43.5549 48.4452 39.2524 48.4452 33.9833V10.0238C48.4452 4.75532 52.7476 0.452881 58.0168 0.452881C63.2852 0.452881 67.5884 4.75604 67.5884 10.0245V33.9833Z" fill="#2EB57D"/>
<path d="M58.0168 72.4104C63.2852 72.4104 67.5884 76.707 67.5884 81.9762C67.5884 87.2453 63.2852 91.5478 58.0168 91.5478C52.7483 91.5478 48.4452 87.2446 48.4452 81.9762V72.4104H58.0168ZM58.0168 67.5883C52.7483 67.5883 48.4452 63.2851 48.4452 58.0167C48.4452 52.7482 52.7476 48.4451 58.0168 48.4451H81.9763C87.2448 48.4451 91.5479 52.7475 91.5479 58.0167C91.5479 63.2851 87.2448 67.5883 81.9763 67.5883H58.0168Z" fill="#EBB02E"/>
</g>
<defs>
<clipPath id="clip0_127_111">
<rect width="92" height="92" fill="white"/>
</clipPath>
</defs>
</svg>
