<svg width="163" height="163" viewBox="0 0 163 163" fill="none" xmlns="http://www.w3.org/2000/svg">
<g clip-path="url(#clip0_127_181)">
<mask id="mask0_127_181" style="mask-type:luminance" maskUnits="userSpaceOnUse" x="0" y="0" width="163" height="163">
<path d="M0 0.200195H162.8V163H0V0.200195Z" fill="white"/>
</mask>
<g mask="url(#mask0_127_181)">
<path d="M159.734 74.351L88.6514 3.27409C87.6776 2.29974 86.5215 1.52681 85.2489 0.999462C83.9763 0.472113 82.6124 0.200684 81.2349 0.200684C79.8574 0.200684 78.4934 0.472113 77.2208 0.999462C75.9483 1.52681 74.7921 2.29974 73.8184 3.27409L59.0633 18.0362L77.7835 36.7564C79.9844 36.009 82.3505 35.8923 84.6143 36.4196C86.878 36.9468 88.9491 38.097 90.5932 39.74C92.2464 41.395 93.4005 43.4818 93.9234 45.7618C94.4464 48.0418 94.317 50.423 93.5502 52.633L111.599 70.6764C113.809 69.9086 116.192 69.7793 118.472 70.3032C120.753 70.8272 122.84 71.9832 124.494 73.6387C125.652 74.797 126.571 76.1721 127.198 77.6856C127.825 79.199 128.148 80.8212 128.148 82.4593C128.148 84.0975 127.825 85.7197 127.198 87.2331C126.571 88.7466 125.652 90.1217 124.494 91.2799C122.152 93.6196 118.976 94.9338 115.666 94.9338C112.355 94.9338 109.18 93.6196 106.838 91.2799C105.098 89.5372 103.913 87.3187 103.431 84.9038C102.95 82.4888 103.193 79.9853 104.131 77.7084L87.2995 60.8822V105.17C89.0761 106.048 90.618 107.336 91.7975 108.928C92.9771 110.52 93.7604 112.371 94.0825 114.326C94.4046 116.281 94.2562 118.285 93.6498 120.171C93.0433 122.057 91.9961 123.772 90.595 125.173C89.4367 126.332 88.0616 127.251 86.5481 127.878C85.0347 128.505 83.4125 128.827 81.7743 128.827C80.1362 128.827 78.514 128.505 77.0006 127.878C75.4871 127.251 74.112 126.332 72.9537 125.173C71.795 124.015 70.8758 122.64 70.2487 121.126C69.6215 119.613 69.2988 117.99 69.2988 116.352C69.2988 114.713 69.6215 113.091 70.2487 111.577C70.8758 110.064 71.795 108.689 72.9537 107.53C74.121 106.361 75.5084 105.434 77.0358 104.804V60.1079C75.5146 59.4814 74.1322 58.5604 72.968 57.398C71.8038 56.2356 70.8808 54.8546 70.2519 53.3344C69.623 51.8141 69.3006 50.1846 69.3034 48.5394C69.3061 46.8943 69.6338 45.2658 70.2678 43.7477L51.8098 25.2862L3.06571 74.0179C1.10149 75.986 -0.00167847 78.6529 -0.00167847 81.4335C-0.00167847 84.2141 1.10149 86.881 3.06571 88.8491L74.1514 159.935C76.1195 161.899 78.786 163.001 81.5662 163.001C84.3463 163.001 87.0129 161.899 88.9809 159.935L159.734 89.1822C161.698 87.2141 162.801 84.5471 162.801 81.7666C162.801 78.986 161.698 76.319 159.734 74.351Z" fill="#F03C2E"/>
</g>
</g>
<defs>
<clipPath id="clip0_127_181">
<rect width="163" height="163" fill="white"/>
</clipPath>
</defs>
</svg>
