<svg width="100" height="99" viewBox="0 0 100 99" fill="none" xmlns="http://www.w3.org/2000/svg">
<path d="M24.6094 98.9883L92.7051 94.8813C94.0917 94.7949 95.3931 94.1891 96.345 93.1872C97.2969 92.1852 97.8279 90.8621 97.8301 89.4866V19.2372C97.8301 18.9052 97.7496 18.5781 97.5953 18.2833C97.4409 17.9885 97.2174 17.7348 96.9434 17.5434L74.7344 2.03982C72.6138 0.560361 70.0431 -0.150498 67.4551 0.0269499L7.64844 4.1397C6.16309 4.24438 4.773 4.90245 3.75822 5.98135C2.74344 7.06025 2.17939 8.4798 2.17969 9.95402V73.4764C2.17996 74.1327 2.39667 74.7709 2.79688 75.294L18.9922 96.4282C19.6443 97.2785 20.4979 97.9569 21.4775 98.4034C22.4572 98.8498 23.5328 99.0507 24.6094 98.9883Z" fill="black"/>
<path d="M21.7852 29.5317V87.5395C21.7856 88.0498 21.8907 88.5548 22.0943 89.0237C22.2978 89.4925 22.5954 89.9156 22.9692 90.2671C23.3429 90.6187 23.7848 90.8913 24.2682 91.0686C24.7516 91.2459 25.2664 91.3241 25.7812 91.2984L87.9082 88.224C88.8682 88.1763 89.773 87.7652 90.4353 87.0756C91.0977 86.386 91.467 85.4708 91.4668 84.5192V25.4054C91.4669 25.0138 91.3863 24.6263 91.23 24.2666C91.0737 23.9069 90.845 23.5825 90.5579 23.3133C90.2707 23.044 89.9311 22.8355 89.5598 22.7005C89.1885 22.5655 88.7934 22.5069 88.3984 22.5282L25.2363 25.9255C24.3043 25.9755 23.4271 26.3772 22.7851 27.048C22.1432 27.7188 21.7853 28.6076 21.7852 29.5317Z" fill="white"/>
<path d="M83.7168 16.1491L23.7558 19.502C22.231 19.5876 20.7275 19.1155 19.5312 18.1756L10.8691 11.3848C10.7206 11.2681 10.6109 11.1098 10.5546 10.9306C10.4982 10.7513 10.4977 10.5594 10.5532 10.3799C10.6087 10.2004 10.7175 10.0416 10.8655 9.92421C11.0134 9.80682 11.1937 9.73632 11.3828 9.72188L66.7265 5.46798C69.1069 5.28743 71.4741 5.95389 73.4023 7.34743L84.0508 15.0238C84.1558 15.0993 84.2346 15.2051 84.2764 15.3267C84.3183 15.4483 84.3211 15.5798 84.2845 15.703C84.248 15.8263 84.1738 15.9354 84.0721 16.0152C83.9705 16.0951 83.8463 16.1419 83.7168 16.1491Z" fill="white"/>
<path d="M81.4551 32.5189L81.3886 34.1277C81.3696 34.554 81.2016 34.9606 80.9134 35.278C80.6253 35.5953 80.2347 35.8039 79.8086 35.8679L76.789 36.3185V78.0763C76.7871 78.2857 76.7219 78.4897 76.6018 78.662C76.4817 78.8343 76.3122 78.9671 76.1152 79.0431L72.7558 80.3522C71.2257 80.947 69.5352 81.001 67.9696 80.505C66.4039 80.009 65.0591 78.9934 64.1621 77.6297L44.4785 47.659V75.8895L44.5937 75.8624L50.3945 77.3822C50.4476 77.3979 50.4966 77.4245 50.5385 77.4604C50.5804 77.4962 50.6141 77.5405 50.6373 77.5902C50.6606 77.64 50.6729 77.694 50.6735 77.7488C50.6741 77.8036 50.6628 77.8579 50.6406 77.9081C50.2561 78.7134 49.6607 79.4021 48.9164 79.9026C48.1722 80.4031 47.3061 80.6972 46.4082 80.7544L44.4785 80.8762L37.1035 81.3441L32.2578 81.6516C32.1892 81.6557 32.1206 81.6435 32.0577 81.616C31.9949 81.5885 31.9396 81.5465 31.8966 81.4934C31.8535 81.4404 31.8239 81.3779 31.8103 81.3112C31.7967 81.2445 31.7995 81.1756 31.8183 81.1102L32.2383 79.6716C32.3169 79.3998 32.4667 79.1535 32.6725 78.9575C32.8783 78.7616 33.1328 78.623 33.4101 78.5559L37.1015 77.6664V39.5302L31.9219 39.2111L32.5078 37.1112C32.6716 36.5213 33.0188 35.9974 33.5 35.6136C33.9813 35.2298 34.5723 35.0055 35.1894 34.9727L37.1035 34.8721L44.4785 34.4854L49.2187 34.2418C49.463 34.229 49.7065 34.2795 49.925 34.3884C50.1435 34.4972 50.3296 34.6606 50.4648 34.8625L54.2969 40.5898L69.8222 63.7929V37.1557L65.084 36.9063C64.9982 36.9022 64.917 36.867 64.8558 36.8075C64.7945 36.7479 64.7576 36.6681 64.7519 36.5834C64.7155 36.0985 64.791 35.6119 64.9726 35.1602C65.5586 33.7429 67.2129 32.8244 69.1758 32.7993L69.8222 32.7626L76.7929 32.3913L81.0898 32.1593C81.1382 32.1571 81.1865 32.1649 81.2317 32.1822C81.2769 32.1995 81.3179 32.2258 81.3523 32.2597C81.3866 32.2935 81.4135 32.334 81.4312 32.3786C81.4489 32.4232 81.457 32.471 81.4551 32.5189Z" fill="black"/>
</svg>
