<svg width="132" height="197" viewBox="0 0 132 197" fill="none" xmlns="http://www.w3.org/2000/svg">
<path d="M33.3164 196.523C51.4453 196.523 66.0703 181.898 66.0703 163.77V131.016H33.3164C15.1875 131.016 0.5625 145.641 0.5625 163.77C0.5625 181.898 15.1875 196.523 33.3164 196.523Z" fill="#0ACF83"/>
<path d="M0.5625 98.2617C0.5625 80.1328 15.1875 65.5078 33.3164 65.5078H66.0703V131.016H33.3164C15.1875 131.016 0.5625 116.391 0.5625 98.2617Z" fill="#A259FF"/>
<path d="M0.5625 32.7539C0.5625 14.625 15.1875 0 33.3164 0H66.0703V65.5078H33.3164C15.1875 65.5078 0.5625 50.8828 0.5625 32.7539Z" fill="#F24E1E"/>
<path d="M66.0703 0H98.8242C116.953 0 131.578 14.625 131.578 32.7539C131.578 50.8828 116.953 65.5078 98.8242 65.5078H66.0703V0Z" fill="#FF7262"/>
<path d="M131.578 98.2617C131.578 116.391 116.953 131.016 98.8242 131.016C80.6953 131.016 66.0703 116.391 66.0703 98.2617C66.0703 80.1328 80.6953 65.5078 98.8242 65.5078C116.953 65.5078 131.578 80.1328 131.578 98.2617Z" fill="#1ABCFE"/>
</svg>
