<svg width="115" height="145" viewBox="0 0 115 145" fill="none" xmlns="http://www.w3.org/2000/svg">
<path d="M36.05 140.563C42.0828 142.986 48.6312 144.43 55.5406 144.688C64.8734 144.997 73.6906 143.089 81.6312 139.428C72.1437 135.716 63.5328 130.25 56.2109 123.444C51.4273 131.082 44.4053 137.06 36.1016 140.563H36.05Z" fill="#FF9100"/>
<path d="M56.1594 123.444C39.4016 107.975 29.2437 85.5453 30.1203 60.95C30.1203 60.1766 30.1719 59.3516 30.2234 58.5781C22.7857 56.6804 14.98 56.7693 7.5875 58.8359C3.10156 66.6734 0.42031 75.6453 0.0593724 85.2875C-0.81719 110.141 14.2391 131.848 36.05 140.614C44.3772 137.149 51.4097 131.163 56.1594 123.495V123.444Z" fill="#FFC400"/>
<path d="M56.1594 123.444C60.1789 117.008 62.4371 109.629 62.7078 102.045C63.4297 81.3172 49.5078 63.5282 30.2234 58.5266C30.2234 59.3 30.1203 60.125 30.1203 60.8985C29.689 72.5778 31.7933 84.2119 36.2884 95.0001C40.7835 105.788 47.5627 115.475 56.1594 123.392V123.444Z" fill="#FF9100"/>
<path d="M60.5422 0.3125C49.5594 9.07812 40.8969 20.6797 35.6375 34.0344C32.5632 41.8651 30.7363 50.1296 30.2234 58.5266C39.7839 60.9978 48.2146 66.6581 54.1214 74.5713C60.0282 82.4846 63.0573 92.1768 62.7078 102.045C62.4689 109.634 60.2082 117.021 56.1594 123.444C63.5692 130.301 72.189 135.721 81.5797 139.428C100.658 130.611 114.167 111.687 114.941 89.2578C115.456 74.7172 109.888 61.775 101.998 50.8437C93.6453 39.2937 60.5422 0.364062 60.5422 0.364062V0.3125Z" fill="#DD2C00"/>
</svg>
