<svg width="156" height="156" viewBox="0 0 156 156" fill="none" xmlns="http://www.w3.org/2000/svg">
<g clip-path="url(#clip0_127_271)">
<path d="M0 78V156H78H156V78V0H78H0V78Z" fill="#007ACC"/>
<path d="M34.4974 78.5173L34.4479 84.9058H44.6003H54.7526L54.7526 113.753V142.601H61.9336H69.1146V113.753V84.9058H79.2669H89.4193L89.4193 78.6411C89.4193 75.1744 89.345 72.2773 89.246 72.203C89.1717 72.1039 76.8155 72.0544 61.8345 72.0792L34.5717 72.1535L34.4974 78.5173Z" fill="white"/>
<path d="M125.877 71.9724C129.838 72.9629 132.859 74.721 135.633 77.5934C137.069 79.1286 139.198 81.9267 139.372 82.5953C139.421 82.7934 132.637 87.3496 128.526 89.9001C128.377 89.9991 127.783 89.3553 127.115 88.3648C125.109 85.4429 123.004 84.1801 119.785 83.9572C115.056 83.6353 112.01 86.1115 112.035 90.2467C112.035 91.4601 112.208 92.1782 112.703 93.1686C113.743 95.3229 115.675 96.6105 121.741 99.2353C132.909 104.039 137.688 107.209 140.659 111.715C143.977 116.742 144.72 124.765 142.467 130.732C139.991 137.22 133.85 141.628 125.208 143.089C122.534 143.559 116.195 143.485 113.322 142.965C107.057 141.851 101.115 138.755 97.4499 134.694C96.0137 133.11 93.2156 128.974 93.3889 128.677C93.4632 128.578 94.107 128.182 94.8251 127.761C95.5184 127.365 98.1432 125.854 100.619 124.418L105.101 121.818L106.042 123.205C107.355 125.211 110.227 127.959 111.96 128.875C116.937 131.5 123.772 131.129 127.139 128.108C128.576 126.795 129.17 125.433 129.17 123.428C129.17 121.62 128.947 120.828 128.006 119.466C126.793 117.732 124.317 116.271 117.284 113.226C109.237 109.759 105.77 107.605 102.6 104.188C100.768 102.207 99.0346 99.0372 98.3165 96.3877C97.7223 94.1839 97.5737 88.662 98.0442 86.4334C99.7032 78.6582 105.572 73.2353 114.04 71.6258C116.789 71.1058 123.177 71.3039 125.877 71.9724Z" fill="white"/>
</g>
<defs>
<clipPath id="clip0_127_271">
<rect width="156" height="156" fill="white"/>
</clipPath>
</defs>
</svg>
