<svg width="98" height="98" viewBox="0 0 98 98" fill="none" xmlns="http://www.w3.org/2000/svg">
<path d="M48.914 57.9927C53.8415 57.9927 57.8361 53.9981 57.8361 49.0705C57.8361 44.143 53.8415 40.1484 48.914 40.1484C43.9864 40.1484 39.9919 44.143 39.9919 49.0705C39.9919 53.9981 43.9864 57.9927 48.914 57.9927Z" fill="#61DAFB"/>
<path d="M48.914 81.8807C55.9173 88.6922 62.8248 92.7215 68.3891 92.7215C70.2119 92.7215 71.9387 92.3378 73.3778 91.4744C78.3665 88.5963 80.1893 81.401 78.4624 71.1358C78.1746 69.313 77.7909 67.4902 77.3112 65.5715C79.2299 64.9958 80.9568 64.4202 82.6836 63.8446C92.3733 60.1031 97.7457 54.9225 97.7457 49.2622C97.7457 43.506 92.3733 38.3255 82.6836 34.6799C80.9568 34.0083 79.2299 33.4327 77.3112 32.953C77.7909 31.0343 78.1746 29.2115 78.4624 27.3887C80.0934 16.9316 78.2706 9.64041 73.2819 6.76231C71.8428 5.89888 70.116 5.51514 68.2932 5.51514C62.8248 5.51514 55.8214 9.54448 48.818 16.356C41.9106 9.54448 35.0031 5.51514 29.4388 5.51514C27.616 5.51514 25.8892 5.89888 24.4501 6.76231C19.4614 9.64041 17.6386 16.8357 19.3655 27.1009C19.6533 28.9237 20.037 30.7465 20.5167 32.6652C18.598 33.2408 16.8711 33.8164 15.1443 34.3921C5.45465 38.1336 0.0821991 43.3142 0.0821991 48.9744C0.0821991 54.7306 5.45465 59.9112 15.1443 63.5568C16.8711 64.2284 18.598 64.804 20.5167 65.2837C20.037 67.2024 19.6533 69.0252 19.3655 70.848C17.7345 81.1132 19.5573 88.4044 24.4501 91.1866C25.8892 92.05 27.616 92.4337 29.4388 92.4337C35.0031 92.6256 41.9106 88.5963 48.914 81.8807ZM43.5415 68.9293C45.2684 69.0252 47.0912 69.0252 48.914 69.0252C50.7367 69.0252 52.5595 69.0252 54.2864 68.9293C52.5595 71.2317 50.7367 73.3423 48.914 75.357C47.0912 73.3423 45.2684 71.2317 43.5415 68.9293ZM31.6454 59.0478C32.6047 60.6787 33.4682 62.2137 34.5235 63.7487C31.5494 63.3649 28.7673 62.8852 26.081 62.3096C26.9445 59.7193 27.9038 57.0331 29.0551 54.3469C29.8226 55.8819 30.686 57.5128 31.6454 59.0478ZM26.081 35.927C28.7673 35.3514 31.5494 34.8717 34.5235 34.488C33.5641 36.023 32.6047 37.558 31.6454 39.1889C30.686 40.8198 29.8226 42.3548 29.0551 43.9857C27.8079 41.2036 26.8485 38.5173 26.081 35.927ZM31.3575 49.0704C32.6047 46.4801 33.9478 43.8898 35.4828 41.2995C36.9219 38.8052 38.5528 36.3108 40.1837 33.8164C43.0618 33.6246 45.9399 33.5286 48.914 33.5286C51.9839 33.5286 54.862 33.6246 57.6442 33.8164C59.371 36.3108 60.906 38.8052 62.3451 41.2995C63.8801 43.8898 65.2232 46.4801 66.4704 49.0704C65.2232 51.6607 63.8801 54.2509 62.3451 56.8412C60.906 59.3356 59.2751 61.8299 57.6442 64.3243C54.7661 64.5162 51.888 64.6121 48.914 64.6121C45.844 64.6121 42.9659 64.5162 40.1837 64.3243C38.4569 61.8299 36.9219 59.3356 35.4828 56.8412C33.9478 54.2509 32.6047 51.6607 31.3575 49.0704ZM68.8688 43.8898L66.2785 39.093C65.3191 37.462 64.4557 35.9271 63.4004 34.3921C66.3744 34.7758 69.1566 35.2555 71.8428 35.8311C70.9794 38.5173 70.02 41.2036 68.8688 43.8898ZM68.8688 54.251C70.02 56.9372 70.9794 59.6234 71.8428 62.2137C69.1566 62.7893 66.3744 63.269 63.4004 63.6527C64.3597 62.1178 65.3191 60.5828 66.2785 58.9518C67.1419 57.5128 68.0053 55.8819 68.8688 54.251ZM71.0753 87.541C70.3078 88.0206 69.3485 88.2125 68.2932 88.2125C63.5923 88.2125 57.7401 84.3751 51.9839 78.6189C54.7661 75.6448 57.4523 72.287 60.1385 68.5455C64.6476 68.1618 68.9647 67.4902 72.994 66.5308C73.4737 68.2577 73.7615 69.9846 74.0493 71.7114C75.3925 79.866 74.3372 85.7182 71.0753 87.541ZM76.064 36.9824C86.8089 40.0523 93.2367 44.7532 93.2367 49.0704C93.2367 52.8119 88.8236 56.5534 81.0527 59.5275C79.5177 60.1031 77.7909 60.6787 76.064 61.1584C74.8168 57.225 73.2819 53.1956 71.3631 49.0704C73.2819 44.9451 74.9128 40.9158 76.064 36.9824ZM68.3891 9.92822C69.4444 9.92822 70.3078 10.1201 71.1712 10.5998C74.3372 12.4226 75.4884 18.1788 74.1453 26.4293C73.8575 28.0602 73.4737 29.7871 73.09 31.6099C69.0606 30.7465 64.7435 30.0749 60.2345 29.5952C57.6442 25.8537 54.862 22.4959 52.0799 19.5219C57.8361 13.8616 63.6882 9.92822 68.3891 9.92822ZM54.2864 29.2115C52.5595 29.1155 50.7367 29.1156 48.914 29.1156C47.0912 29.1156 45.2684 29.1155 43.5415 29.2115C45.2684 26.909 47.0912 24.7984 48.914 22.7837C50.7367 24.7984 52.5595 27.0049 54.2864 29.2115ZM26.7526 10.5998C27.5201 10.1201 28.4794 9.92822 29.5347 9.92822C34.2356 9.92822 40.0878 13.7657 45.844 19.5219C43.0618 22.4959 40.3756 25.8537 37.6894 29.5952C33.1803 29.979 28.8632 30.6505 24.8339 31.6099C24.3542 29.883 24.0664 28.1562 23.7785 26.4293C22.4354 18.2747 23.4907 12.5185 26.7526 10.5998ZM21.7639 61.1584C11.019 58.0884 4.59122 53.3875 4.59122 49.0704C4.59122 45.3288 9.00431 41.5873 16.7752 38.6133C18.3102 38.0377 20.037 37.462 21.7639 36.9824C23.0111 40.9158 24.546 44.9451 26.4648 49.0704C24.546 53.1956 22.9151 57.3209 21.7639 61.1584ZM23.7785 71.7114C24.0664 70.0805 24.4501 68.3536 24.8339 66.5308C28.8632 67.3943 33.1803 68.0658 37.6894 68.5455C40.2797 72.287 43.0618 75.6448 45.844 78.6189C40.0878 84.2791 34.2356 88.2125 29.5347 88.2125C28.4794 88.2125 27.616 88.0206 26.7526 87.541C23.4907 85.7182 22.4354 79.866 23.7785 71.7114Z" fill="#61DAFB"/>
</svg>
