<svg width="130" height="136" viewBox="0 0 130 136" fill="none" xmlns="http://www.w3.org/2000/svg">
<g clip-path="url(#clip0_127_249)">
<path d="M126.069 66.9588C126.069 58.7861 120.15 51.9085 112.204 49.9461L130.001 0.120117H41.8037L59.6411 50.1033C51.9447 52.2241 46.2714 58.9816 46.2714 67.0002C46.2714 72.8929 49.3772 78.1182 54.0948 81.3397C52.2342 83.8547 50.08 86.1741 47.6395 88.3735C43.0458 92.462 37.9514 95.6038 32.4488 97.6874C27.4824 94.5041 25.3313 88.8846 27.2752 83.8536C34.8487 81.6542 40.3564 74.935 40.3564 67.0374C40.3564 57.3336 32.0364 49.4722 21.8518 49.4722C11.6285 49.4722 3.31356 57.3708 3.31356 67.0778C3.31356 71.8729 5.38036 76.2716 8.69333 79.4134C8.40286 79.9659 8.11442 80.5131 7.82395 81.1028C5.05129 86.5279 1.90489 92.6575 0.702388 99.5351C-1.69753 113.285 2.23395 124.33 11.7118 130.576C17.0519 134.075 22.9314 135.843 29.2638 135.843C40.1452 135.843 51.1982 130.655 61.8745 125.624C69.4917 122.05 77.3547 118.315 85.0947 116.51C87.9517 115.841 90.9305 115.447 94.0769 115.016C100.448 114.152 107.03 113.248 112.949 109.986C119.861 106.176 124.578 99.8081 125.946 92.5002C126.977 86.8796 125.946 81.2229 123.295 76.2716C125.106 73.5359 126.075 70.2863 126.069 66.9588ZM118 66.9588C118 72.4201 113.322 76.8613 107.569 76.8613C101.817 76.8613 97.139 72.4201 97.139 66.9588C97.139 65.1897 97.6357 63.5014 98.504 62.0479C98.8341 61.4954 99.2505 60.9482 99.6618 60.4754C100.098 59.9892 100.584 59.5548 101.111 59.1802L101.155 59.1388C101.484 58.9029 101.857 58.666 102.229 58.4333C102.229 58.4333 102.27 58.4333 102.27 58.3919C102.436 58.3132 102.602 58.1964 102.77 58.1177C102.809 58.1177 102.849 58.0763 102.892 58.0763C103.059 58.0019 103.265 57.9233 103.47 57.8436C103.666 57.7721 103.86 57.6934 104.05 57.6077C104.091 57.6077 104.134 57.5652 104.173 57.5652C104.34 57.5291 104.506 57.4494 104.67 57.4122C104.714 57.4122 104.797 57.3708 104.836 57.3708C105.043 57.3336 105.209 57.2922 105.415 57.2539H105.459L106.079 57.1339C106.121 57.1339 106.2 57.1339 106.244 57.0967C106.411 57.0967 106.574 57.0552 106.741 57.0552H106.947C107.153 57.0552 107.363 57.0181 107.609 57.0181H108.148C108.311 57.0181 108.439 57.0181 108.601 57.0552H108.685C109.018 57.0977 109.347 57.1339 109.68 57.2136C114.398 58.1549 118 62.1648 118 66.9588ZM53.3483 7.9773H118.452L103.511 49.826C102.892 49.9461 102.269 50.1405 101.65 50.336L85.9245 19.8847L70.1539 50.1394C69.5313 49.945 68.8691 49.8249 68.21 49.7081L53.3483 7.9773ZM82.9406 63.5376C82.1555 59.8432 80.1679 56.5442 77.3546 54.1079L85.9245 37.6848L94.5725 54.4606C92.0061 56.8969 90.1444 60.0016 89.3989 63.5376H82.9406ZM62.2076 57.3326C62.4138 57.2901 62.5803 57.2539 62.7865 57.2125H62.9094C63.076 57.1753 63.2436 57.1753 63.4061 57.1328H63.5726C63.7392 57.1328 63.8621 57.0956 64.0286 57.0956H65.6435C65.806 57.0956 65.9329 57.1328 66.0558 57.1328C66.1391 57.1328 66.1787 57.1328 66.262 57.1753C66.4286 57.2125 66.5514 57.2125 66.719 57.2539C66.7576 57.2539 66.8013 57.2539 66.8846 57.2911C67.0918 57.3326 67.2979 57.3697 67.4635 57.4112H67.5041C67.6707 57.4484 67.8372 57.4856 67.9997 57.5652C68.0434 57.5652 68.083 57.6067 68.1663 57.6067C68.2892 57.6439 68.4557 57.6853 68.5786 57.7639C68.6223 57.7639 68.6619 57.8011 68.7056 57.8011C68.8681 57.8808 69.0357 57.9222 69.2022 58.0009H69.2418C69.448 58.0752 69.6146 58.1539 69.7811 58.275H69.8218C69.9873 58.3536 70.1539 58.4694 70.3204 58.5481C70.3611 58.5481 70.3611 58.5906 70.3997 58.5906C70.5662 58.6649 70.6901 58.785 70.8567 58.8636L70.9003 58.9008C71.396 59.2546 71.852 59.6488 72.3039 60.043L72.3476 60.0802C72.761 60.5116 73.1733 60.9844 73.5064 61.4954C74.582 63.0679 75.2046 64.9156 75.2046 66.9195C75.2046 72.3818 70.5266 76.8188 64.7741 76.8188C59.0216 76.8188 54.3436 72.3818 54.3436 66.9195C54.301 62.321 57.6536 58.4322 62.2076 57.3326ZM21.479 57.0542C27.2325 57.0542 31.9095 61.4954 31.9095 66.9567C31.9095 72.419 27.2325 76.8592 21.479 76.8592C15.7265 76.8592 11.0486 72.419 11.0486 66.9567C11.0486 61.4954 15.7265 57.0542 21.479 57.0542ZM117.75 91.1254C116.841 96.151 113.568 100.555 108.768 103.186C104.257 105.664 98.7102 106.448 92.8744 107.233C89.6894 107.664 86.3368 108.137 83.1071 108.884C74.4987 110.889 66.2224 114.819 58.1929 118.588C47.9289 123.423 38.2409 127.98 29.2638 127.98C24.5858 127.98 20.4045 126.723 16.4334 124.092C7.32833 118.119 7.78028 106.922 8.85989 100.791C9.85114 95.0513 12.6248 89.6687 15.2746 84.5219C15.4371 84.2064 15.564 83.9322 15.7265 83.6167C16.6396 83.9322 17.5912 84.1692 18.5835 84.3264C17.0123 92.6564 21.479 101.261 30.1718 105.506L31.746 106.29L33.4411 105.701C40.6855 103.264 47.3896 99.2971 53.3087 93.992C56.6613 91.0042 59.5182 87.7838 61.9182 84.285C62.8698 84.4433 63.8225 84.4847 64.7741 84.4847C73.3836 84.4847 80.6239 78.8641 82.6948 71.3193H89.6457C91.7166 78.9024 98.96 84.4837 107.569 84.4837C111.005 84.4837 114.191 83.5806 116.92 82.0484C118 84.9947 118.329 88.0579 117.75 91.1254Z" fill="#99425B"/>
</g>
<defs>
<clipPath id="clip0_127_249">
<rect width="130" height="136" fill="white"/>
</clipPath>
</defs>
</svg>
