<svg width="98" height="98" viewBox="0 0 98 98" fill="none" xmlns="http://www.w3.org/2000/svg">
<path d="M1.078 1.07812H96.922V96.9229H1.078V1.07812Z" fill="#F0DB4F"/>
<path d="M89.0782 74.0635C88.3761 69.691 85.5249 66.0183 77.0793 62.5936C74.1454 61.2454 70.8747 60.2799 69.9 58.0566C69.554 56.7627 69.508 56.0338 69.727 55.2505C70.3556 52.7087 73.3897 51.9162 75.7946 52.6451C77.3434 53.1642 78.8096 54.3578 79.6939 56.2619C83.8298 53.5838 83.8214 53.6014 86.7093 51.7608C85.652 50.1216 85.0877 49.3652 84.3956 48.6639C81.9081 45.8854 78.5187 44.4545 73.098 44.564L70.2744 44.9292C67.5687 45.6129 64.9901 47.0331 63.478 48.9372C58.9409 54.0853 60.2348 63.0951 65.7557 66.8031C71.1947 70.8854 79.1848 71.8141 80.2053 75.6315C81.1984 80.3049 76.7708 81.8177 72.3699 81.2803C69.1268 80.6057 67.3229 78.9574 65.3729 75.9599C61.7836 78.0371 61.7836 78.0371 58.0933 80.1594C58.9684 82.0727 59.888 82.9386 61.3549 84.5962C68.2976 91.6384 85.6711 91.2923 88.7872 80.6333C88.9136 80.2673 89.7527 77.8265 89.0782 74.0635ZM53.1818 45.1282H44.2171L44.1804 68.3052C44.1804 73.2343 44.4353 77.753 43.6337 79.138C42.3222 81.8621 38.9236 81.5245 37.3748 80.9962C35.7983 80.2214 34.9967 79.1197 34.068 77.5624C33.8131 77.1153 33.6217 76.7692 33.5573 76.7424L26.2686 81.206C27.4806 83.6935 29.266 85.8526 31.5529 87.2552C34.9692 89.3055 39.5606 89.9341 44.3626 88.8316C47.4879 87.9213 50.1844 86.0356 51.5962 83.1652C53.6374 79.4022 53.1995 74.8475 53.1811 69.8097C53.227 61.5907 53.1818 53.3732 53.1818 45.1282Z" fill="#323330"/>
</svg>
