<svg width="95" height="95" viewBox="0 0 95 95" fill="none" xmlns="http://www.w3.org/2000/svg">
<path d="M36.7571 61.0574C35.3518 62.4626 35.3518 65.0237 36.7571 66.4289C38.1623 67.8341 40.7233 67.8341 42.1285 66.4289L66.4287 42.1287C69.4964 39.0609 74.2266 39.0609 77.1716 42.1287C80.2393 45.2003 80.2393 49.9305 77.1716 52.8716L53.3821 76.7878C56.4537 79.8595 61.1839 79.8595 64.125 76.7878L82.6698 58.243C88.5558 52.3609 88.5558 42.6393 82.6698 36.4999C76.7877 30.6178 67.066 30.6178 60.9306 36.4999L36.7571 61.0574ZM74.6146 44.8164C73.2054 43.4072 70.6483 43.4072 69.2431 44.8164L44.9389 69.2393C41.8712 72.311 37.141 72.311 34.2 69.2393C32.7908 67.8341 30.2337 67.8341 28.8285 69.2393C27.4193 70.6484 27.4193 73.2055 28.8285 74.6147C34.7106 80.4968 44.4323 80.4968 50.5677 74.6147L74.7412 50.3145C76.0198 48.7787 76.0198 46.2255 74.6146 44.8164ZM34.0693 58.243L58.3735 33.9428C59.7787 32.5376 59.7787 29.9805 58.3735 28.5714C56.9643 27.1662 54.4073 27.1662 52.9981 28.5714L28.5752 52.8755C25.5035 55.9432 20.7693 55.9432 17.8283 52.8755C17.0982 52.1572 16.5184 51.3008 16.1227 50.3562C15.7269 49.4116 15.5231 48.3976 15.5231 47.3734C15.5231 46.3493 15.7269 45.3353 16.1227 44.3907C16.5184 43.4461 17.0982 42.5897 17.8283 41.8714L41.6179 18.2124C38.5462 15.1447 33.816 15.1447 30.875 18.2124L12.3302 36.7572C6.44414 42.6393 6.44414 52.3609 12.3302 58.5003C18.2123 64.3824 28.1873 64.3824 34.0693 58.243ZM20.6427 50.1918C22.0479 51.597 24.605 51.597 26.0141 50.1918L50.441 25.8876C53.5127 22.8199 58.2429 22.8199 61.1839 25.8876C62.5931 27.2968 65.1502 27.2968 66.5554 25.8876C67.9646 24.4824 67.9646 21.9293 66.5554 20.5201C60.6733 14.6341 50.9516 14.6341 44.8162 20.5201L20.5121 44.8203C20.1421 45.1673 19.8496 45.5885 19.6536 46.0564C19.4577 46.5242 19.3628 47.0282 19.3751 47.5353C19.3875 48.0424 19.5068 48.5411 19.7252 48.9989C19.9436 49.4567 20.2563 49.8632 20.6427 50.1918Z" fill="black"/>
</svg>
