<svg width="81" height="91" viewBox="0 0 81 91" fill="none" xmlns="http://www.w3.org/2000/svg">
<g clip-path="url(#clip0_127_49)">
<path d="M80.8889 31.782C80.8889 48.55 73.4149 57.3814 65.3089 63.1906L63.7341 64.2785L62.1543 65.299L60.581 66.2596L59.0249 67.1687L53.1405 70.4706C52.8342 70.6456 52.5323 70.82 52.2346 70.9938L50.5018 72.0375C44.3489 75.8784 40.4356 80.0246 40.107 89.4096L40.0846 90.7225H22.6716C22.6716 74.4957 29.673 65.7006 37.4711 59.8852L39.0396 58.7603C39.3021 58.5792 39.565 58.4008 39.8283 58.2254L41.4082 57.2051L42.9811 56.2446L46.0646 54.4701L50.421 52.0333L52.2068 50.989C58.8492 46.9919 63.111 42.9067 63.4545 33.0948L63.4769 31.782H80.8889ZM58.2185 0.0457261C58.2185 16.2709 51.2188 25.066 43.4206 30.8818L41.8521 32.0066C41.5894 32.1878 41.3264 32.3661 41.0631 32.5416L39.4833 33.5622L37.91 34.5227L34.8261 36.2972L30.4695 38.7343L28.6836 39.7786C28.3948 39.9522 28.1105 40.1263 27.8305 40.3009L26.2093 41.3597C20.9957 44.9391 17.7349 49.1412 17.436 57.6734L17.4132 58.9862H0C0 41.6773 7.9644 32.826 16.3664 27.025L17.9453 25.9719L19.5233 24.9819L21.0896 24.0479L27.7487 20.2967L29.5346 19.2521C36.1772 15.255 40.4388 11.1695 40.7822 1.35827L40.805 0.0454102L58.2185 0.0457261Z" fill="#FF3C00"/>
</g>
<defs>
<clipPath id="clip0_127_49">
<rect width="80.8889" height="91" fill="white"/>
</clipPath>
</defs>
</svg>
