<svg width="128" height="125" viewBox="0 0 128 125" fill="none" xmlns="http://www.w3.org/2000/svg">
<g clip-path="url(#clip0_126_14)">
<path d="M106.75 0H21.25C9.51395 0 0 9.51395 0 21.25V103.55C0 115.286 9.51395 124.8 21.25 124.8H106.75C118.486 124.8 128 115.286 128 103.55V21.25C128 9.51395 118.486 0 106.75 0Z" fill="#001E36"/>
<path d="M28.822 87.5175V32.6485C28.822 32.2482 28.9938 32.0479 29.3375 32.0475L29.881 32.046L30.81 32.036L32.101 32.0105L36.426 31.919L41.0635 31.833C42.6945 31.8047 44.3115 31.7904 45.9145 31.79C50.2645 31.79 53.9282 32.3339 56.9055 33.4215C59.5916 34.3294 62.0412 35.8255 64.0755 37.8005C65.8003 39.5122 67.1333 41.5777 67.9825 43.8545C68.7854 46.0702 69.1925 48.4099 69.185 50.7665C69.185 55.3469 68.1258 59.125 66.0075 62.101C63.9359 65.0044 61.0464 67.2249 57.7075 68.479L57.421 68.584C53.9345 69.8845 50.0735 70.3545 45.839 70.384L45.181 70.386L44.2045 70.381L43.712 70.374L43.163 70.361L42.832 70.348L42.631 70.3375L42.1365 70.3195L41.532 70.307L40.622 70.3005L40.4195 70.3V87.4315C40.4345 87.5366 40.4249 87.6436 40.3914 87.7443C40.3579 87.8449 40.3014 87.9364 40.2264 88.0114C40.1513 88.0864 40.0599 88.1429 39.9592 88.1765C39.8586 88.21 39.7515 88.2196 39.6465 88.2045H29.4235C29.0222 88.2049 28.8217 87.9759 28.822 87.5175ZM40.42 42.3515V60.2475C41.1633 60.3052 41.85 60.3339 42.48 60.3335H45.314C47.2679 60.3268 49.2104 60.0359 51.0805 59.47L51.4535 59.3535C53.155 58.8486 54.6753 57.8648 55.833 56.5195C56.909 55.2505 57.4663 53.5019 57.505 51.2735L57.5075 51.024C57.5525 49.363 57.1205 47.724 56.262 46.3015C55.3601 44.9255 54.0558 43.861 52.527 43.253C50.5311 42.4769 48.3989 42.1119 46.2585 42.18L45.1695 42.183L44.4825 42.189L43.827 42.1975L42.902 42.2155L42.227 42.2345L41.8765 42.2475L41.408 42.2695L41.009 42.294L40.7815 42.312L40.585 42.331L40.4985 42.341L40.42 42.3515ZM102.385 56.9935C100.887 56.224 99.2982 55.6458 97.656 55.2725L97.276 55.1905C95.4692 54.7761 93.6248 54.5477 91.7715 54.509L91.3085 54.5035C90.222 54.474 89.1371 54.6043 88.0885 54.89C87.4211 55.039 86.8279 55.4191 86.4135 55.963C86.1335 56.3985 85.9846 56.9053 85.9845 57.423C86.0002 57.9251 86.1812 58.4079 86.4995 58.7965C86.9553 59.3294 87.5032 59.776 88.117 60.115L88.303 60.2135C89.5273 60.8727 90.7887 61.4603 92.081 61.9735C94.9625 62.9388 97.7161 64.2508 100.281 65.8805C102.028 66.9833 103.474 68.503 104.489 70.303C105.342 72.0073 105.769 73.8927 105.734 75.798C105.785 78.3144 105.066 80.7862 103.673 82.8825C102.182 85.0102 100.11 86.6643 97.705 87.6475C95.1863 88.7542 92.0935 89.3262 88.4265 89.3635L88.0455 89.3655C85.7722 89.3881 83.5022 89.1892 81.2675 88.7715L80.7895 88.6785C78.908 88.3335 77.0766 87.7566 75.337 86.961C75.162 86.8709 75.0142 86.7359 74.9086 86.5699C74.803 86.4038 74.7434 86.2127 74.736 86.016V76.657C74.7257 76.5662 74.7403 76.4743 74.7781 76.391C74.816 76.3078 74.8757 76.2365 74.951 76.1845C75.0246 76.1427 75.1094 76.1243 75.1937 76.132C75.2781 76.1397 75.3581 76.173 75.423 76.2275C77.4774 77.4388 79.708 78.3224 82.0345 78.8465C84.0853 79.3608 86.1889 79.6346 88.303 79.6625C90.306 79.6625 91.78 79.4049 92.725 78.8895C93.1515 78.694 93.5123 78.3791 93.7637 77.9829C94.0152 77.5867 94.1466 77.1262 94.142 76.657C94.142 75.9137 93.7127 75.1982 92.854 74.5105C92.494 74.2225 91.9778 73.9092 91.3055 73.5705L90.984 73.4125L90.641 73.251L90.461 73.169L90.084 73.002L89.8875 72.917L89.4775 72.745L89.264 72.6575L88.821 72.48L88.591 72.39L88.1145 72.2065L87.616 72.02C84.9194 71.0824 82.3629 69.7825 80.0165 68.156C78.338 66.9889 76.956 65.445 75.981 63.648C75.1369 61.9559 74.71 60.0863 74.736 58.1955C74.7307 55.9235 75.3547 53.6945 76.539 51.7555C77.889 49.6205 79.827 47.9205 82.1205 46.8615C84.6388 45.6029 87.7872 44.973 91.5655 44.972C93.7785 44.9543 95.9895 45.1123 98.1775 45.4445C99.7618 45.6457 101.311 46.0647 102.78 46.6895C103.017 46.7575 103.207 46.932 103.295 47.162C103.354 47.3715 103.382 47.588 103.381 47.806V56.4785C103.394 56.6835 103.295 56.88 103.124 56.9935C103.009 57.0506 102.883 57.0803 102.754 57.0803C102.626 57.0803 102.5 57.0506 102.385 56.9935Z" fill="#31A8FF"/>
</g>
<defs>
<clipPath id="clip0_126_14">
<rect width="128" height="125" fill="white"/>
</clipPath>
</defs>
</svg>
