<svg width="128" height="125" viewBox="0 0 128 125" fill="none" xmlns="http://www.w3.org/2000/svg">
<g clip-path="url(#clip0_126_17)">
<path d="M106.75 0H21.25C9.51395 0 0 9.51395 0 21.25V103.55C0 115.286 9.51395 124.8 21.25 124.8H106.75C118.486 124.8 128 115.286 128 103.55V21.25C128 9.51395 118.486 0 106.75 0Z" fill="#00005B"/>
<path d="M51.4215 74.6666H31.586L27.55 87.2271C27.4983 87.4424 27.3772 87.6347 27.2055 87.7745C27.0337 87.9142 26.8208 87.9937 26.5995 88.0006L16.4735 88.0001C15.9002 88.0001 15.6998 87.6851 15.8725 87.0551L33.046 37.8006L33.2175 37.2831L33.2745 37.1061L33.3895 36.7361C33.4465 36.5451 33.5035 36.3426 33.561 36.1231C33.786 34.9776 33.901 33.8131 33.9045 32.6456C33.8929 32.564 33.9005 32.4808 33.9266 32.4026C33.9527 32.3243 33.9966 32.2533 34.0549 32.195C34.1132 32.1367 34.1843 32.0927 34.2625 32.0666C34.3407 32.0405 34.4239 32.033 34.5055 32.0446H48.1585C48.5585 32.0446 48.7875 32.1878 48.8455 32.4741L68.337 87.1416C68.5087 87.7143 68.337 88.0004 67.822 88.0001H56.659C56.4674 88.021 56.2746 87.9716 56.1167 87.8611C55.9588 87.7505 55.8464 87.5863 55.8005 87.3991L51.4215 74.6666ZM34.6775 64.0761H48.2445L48.051 63.4376L47.7405 62.4266L47.286 60.9786L46.4135 58.2451L45.5825 55.6181L44.0365 50.7236C43.6094 49.3725 43.1993 48.0161 42.8065 46.6546L42.3675 45.1066L41.8935 43.4101L41.4605 41.8366H41.3745C40.9447 43.8976 40.4215 45.9381 39.8065 47.9516L39.2265 49.8131L37.8315 54.3131L37.1245 56.6056C36.9968 57.0196 36.8693 57.4289 36.742 57.8336L36.362 59.0326L35.984 60.2036L35.608 61.3456L35.234 62.4591C35.0477 63.0091 34.8622 63.5481 34.6775 64.0761ZM99.9365 69.7781H83.021C83.2278 71.4517 83.7837 73.0633 84.6525 74.5086C85.6127 75.94 86.9706 77.0593 88.559 77.7286C90.7117 78.6606 93.0402 79.117 95.3855 79.0666C97.2462 79.0306 99.0998 78.8271 100.924 78.4586C102.555 78.2386 104.154 77.8219 105.686 77.2176C105.972 76.9893 106.115 77.1323 106.116 77.6466V85.8041C106.13 86.0266 106.085 86.2486 105.986 86.4481C105.888 86.6041 105.756 86.7361 105.6 86.8346C103.901 87.587 102.114 88.1196 100.28 88.4196C97.7892 88.8872 95.2576 89.1028 92.7235 89.0631C88.7855 89.0631 85.466 88.4723 82.765 87.2906L82.505 87.1741C79.9083 86.0305 77.6149 84.2957 75.808 82.1081C74.12 80.0469 72.8642 77.6669 72.1155 75.1101C71.3746 72.5863 70.999 69.9694 71 67.3391C70.9918 64.467 71.4411 61.6119 72.331 58.8811C73.1878 56.2175 74.5426 53.7407 76.3235 51.5826C78.0806 49.45 80.2773 47.7218 82.7635 46.5161C85.282 45.2861 88.259 44.8446 91.6935 44.8446C94.542 44.7733 97.3712 45.3303 99.98 46.4761C102.173 47.4114 104.104 48.8697 105.604 50.7236C107.011 52.5386 108.087 54.5879 108.781 56.7771C109.457 58.8867 109.805 61.0878 109.812 63.3031C109.812 64.5631 109.769 65.7081 109.683 66.7381L109.607 67.6201L109.527 68.4571L109.479 68.8811L109.468 68.9706C109.446 69.1598 109.355 69.3343 109.212 69.461C109.07 69.5876 108.886 69.6576 108.696 69.6576L108.46 69.6626L108.167 69.6776L107.938 69.6941L107.404 69.7396L106.935 69.7861C106.807 69.7994 106.675 69.8119 106.538 69.8236L106.112 69.8571L105.658 69.8871L105.175 69.9121L104.664 69.9336L104.398 69.9426L103.844 69.9576C103.297 69.9711 102.736 69.9371 102.16 69.8951L101.287 69.8311C100.838 69.7982 100.387 69.7806 99.9365 69.7781ZM83.0215 61.9556H94.7145L95.7105 61.9491L96.3875 61.9396L96.826 61.9296L97.318 61.9126C97.7584 61.8686 98.1835 61.7277 98.563 61.5001V60.9851C98.5461 60.3135 98.4306 59.648 98.22 59.0101C97.7568 57.5451 96.8254 56.2727 95.5689 55.3884C94.3124 54.5041 92.8004 54.0567 91.265 54.1151C89.8199 54.0278 88.3806 54.3629 87.1226 55.0796C85.8646 55.7963 84.8424 56.8635 84.1805 58.1511C83.5919 59.3488 83.2006 60.6332 83.0215 61.9556Z" fill="#9999FF"/>
</g>
<defs>
<clipPath id="clip0_126_17">
<rect width="128" height="125" fill="white"/>
</clipPath>
</defs>
</svg>
