<svg width="128" height="125" viewBox="0 0 128 125" fill="none" xmlns="http://www.w3.org/2000/svg">
<g clip-path="url(#clip0_126_23)">
<path d="M106.75 0H21.25C9.51395 0 0 9.51395 0 21.25V103.55C0 115.286 9.51395 124.8 21.25 124.8H106.75C118.486 124.8 128 115.286 128 103.55V21.25C128 9.51395 118.486 0 106.75 0Z" fill="#470137"/>
<path d="M67.289 32.8199L51.3175 59.1814L68.405 87.1739C68.515 87.3699 68.5455 87.5999 68.491 87.8179C68.4645 87.9109 68.4075 87.9339 68.32 87.9374L68.223 87.9359L68.105 87.9329C68.041 87.9329 67.9695 87.9359 67.89 87.9489H55.57L55.328 87.9449C54.664 87.9274 54.1855 87.8324 53.894 87.3454C52.7541 85.1247 51.6091 82.9065 50.459 80.6909C49.4303 78.7148 48.3735 76.7535 47.289 74.8074L46.81 73.9504C45.5129 71.6451 44.2391 69.3266 42.989 66.9954H42.903C41.7485 69.3022 40.5606 71.5922 39.3395 73.8644C38.1078 76.1544 36.8913 78.4299 35.69 80.6909C34.4878 82.9532 33.257 85.2002 31.998 87.4314C31.7955 87.8864 31.459 87.9814 30.9905 87.9969L30.7955 87.9999H19.032L18.981 88.0014L18.813 88.0164C18.7195 88.0219 18.6635 88.0019 18.6455 87.8609C18.6135 87.6516 18.6594 87.4377 18.7745 87.2599L35.3465 60.0399L19.2035 32.7349C19.0322 32.5069 19.0035 32.3209 19.1175 32.1769C19.1809 32.1036 19.2604 32.0459 19.3499 32.0086C19.4394 31.9713 19.5363 31.9553 19.633 31.9619H31.74C32.004 31.9476 32.2679 31.9917 32.513 32.0909C32.718 32.2074 32.8945 32.3689 33.028 32.5634C34.0583 34.8534 35.2033 37.1431 36.463 39.4324C37.7128 41.707 38.9865 43.9683 40.284 46.2159C41.5616 48.4288 42.7504 50.6917 43.8475 52.9994H43.9335C45.0578 50.6923 46.2171 48.4024 47.411 46.1304C48.5837 43.8978 49.7857 41.6508 51.017 39.3894C52.2324 37.1574 53.4203 34.9106 54.5805 32.6494C54.6465 32.4374 54.7645 32.2454 54.924 32.0909C55.1361 31.9835 55.3744 31.9387 55.611 31.9619H66.8595C66.9629 31.9361 67.0719 31.9446 67.1701 31.9861C67.2683 32.0276 67.3503 32.0999 67.4039 32.192C67.4574 32.2842 67.4796 32.3912 67.4671 32.497C67.4546 32.6029 67.4081 32.7018 67.3345 32.7789L67.289 32.8199ZM92.524 89.0564L91.932 89.0629C87.9797 89.1233 84.0636 88.302 80.4685 86.6589C77.1194 85.1089 74.3198 82.5787 72.44 79.4029C70.5443 76.2546 69.5718 72.3321 69.5225 67.6354L69.5205 67.2529C69.4883 63.3119 70.4954 59.4321 72.4405 56.0044C74.3871 52.6119 77.2249 49.8166 80.6465 47.9214L80.941 47.7614C84.661 45.7004 89.1547 44.6699 94.422 44.6699L94.652 44.6724L94.915 44.6809L95.21 44.6939L95.538 44.7129L96.089 44.7519L96.713 44.8019L97.1695 44.8419V27.9259C97.1695 27.5256 97.3412 27.3253 97.6845 27.3249H108.504C108.574 27.3149 108.645 27.3213 108.712 27.3436C108.779 27.366 108.84 27.4036 108.89 27.4536C108.94 27.5036 108.978 27.5645 109 27.6316C109.023 27.6986 109.029 27.77 109.019 27.8399V78.5874C109.019 79.4398 109.052 80.3571 109.118 81.3394L109.278 83.5669L109.363 84.8554C109.374 85.0339 109.33 85.2113 109.238 85.3646C109.146 85.5179 109.01 85.6398 108.848 85.7144C106.056 86.8783 103.149 87.7417 100.175 88.2899C97.6502 88.7562 95.0911 89.0126 92.524 89.0564ZM97.1695 78.4154V54.9739C96.7055 54.8482 96.2316 54.762 95.753 54.7164C95.1681 54.6573 94.5804 54.6286 93.9925 54.6304C91.9088 54.6094 89.8496 55.0802 87.982 56.0044C86.1631 56.9093 84.6099 58.2702 83.474 59.9544C82.3403 61.6124 81.7542 63.7774 81.7155 66.4494L81.7135 66.7379C81.6719 68.6096 81.9776 70.4727 82.615 72.2329C83.1342 73.6514 83.9547 74.9405 85.02 76.0114C86.0395 76.9966 87.2739 77.7314 88.626 78.1579C90.0542 78.6202 91.5469 78.8523 93.048 78.8454C93.849 78.8454 94.5932 78.8166 95.2805 78.7589C95.8288 78.7176 96.3723 78.6273 96.9045 78.4889L97.1695 78.4154Z" fill="#FF61F6"/>
</g>
<defs>
<clipPath id="clip0_126_23">
<rect width="128" height="125" fill="white"/>
</clipPath>
</defs>
</svg>
