<svg width="102" height="113" viewBox="0 0 102 113" fill="none" xmlns="http://www.w3.org/2000/svg">
<g clip-path="url(#clip0_127_51)">
<path d="M101.86 98.6495C101.871 100.636 101.459 102.601 100.652 104.416C99.845 106.231 98.6617 107.853 97.1803 109.176C95.6988 110.499 93.9532 111.492 92.059 112.089C90.1648 112.686 88.1654 112.874 86.1931 112.64C79.0137 111.577 73.7528 105.33 73.9279 98.0746V14.6603C73.7544 7.39723 79.0284 1.14642 86.217 0.0956011C88.1874 -0.135142 90.1843 0.0551036 92.0757 0.653753C93.9671 1.2524 95.7098 2.24581 97.1885 3.56827C98.6673 4.89072 99.8485 6.51209 100.654 8.32511C101.459 10.1381 101.87 12.1015 101.86 14.0853V98.6495Z" fill="#F9AB00"/>
<path d="M13.9662 84.8267C21.6797 84.8267 27.9325 91.0799 27.9325 98.7929C27.9325 106.506 21.6797 112.759 13.9662 112.759C6.2528 112.759 0 106.506 0 98.7933C0 91.0803 6.2528 84.8267 13.9662 84.8267ZM50.7143 42.4966C42.9647 42.9216 36.9514 49.4223 37.1316 57.1819V94.6967C37.1316 104.878 41.6115 111.059 48.175 112.376C50.2099 112.789 52.3111 112.743 54.3262 112.243C56.3413 111.742 58.2198 110.8 59.8253 109.483C61.4309 108.166 62.7232 106.509 63.6086 104.631C64.4941 102.753 64.9503 100.701 64.9444 98.625V56.5353C64.9479 54.6746 64.5808 52.8318 63.8645 51.1145C63.1482 49.3971 62.0971 47.8396 60.7724 46.5328C59.4478 45.2261 57.8762 44.1962 56.1493 43.5033C54.4224 42.8104 52.5748 42.4679 50.7143 42.4966Z" fill="#E37400"/>
</g>
<defs>
<clipPath id="clip0_127_51">
<rect width="101.859" height="113" fill="white"/>
</clipPath>
</defs>
</svg>
