<svg width="128" height="125" viewBox="0 0 128 125" fill="none" xmlns="http://www.w3.org/2000/svg">
<g clip-path="url(#clip0_126_20)">
<path d="M106.75 0H21.25C9.51395 0 0 9.51395 0 21.25V103.55C0 115.286 9.51395 124.8 21.25 124.8H106.75C118.486 124.8 128 115.286 128 103.55V21.25C128 9.51395 118.486 0 106.75 0Z" fill="#330000"/>
<path d="M62.027 74.895H42.192L38.156 87.4315C38.1011 87.6602 37.9681 87.8625 37.78 88.0036C37.5919 88.1447 37.3604 88.2158 37.1255 88.2045H27.079C26.5063 88.2045 26.306 87.8895 26.478 87.2595L43.6515 37.8005C43.8232 37.2855 43.9948 36.6988 44.1665 36.0405C44.3915 34.8945 44.5065 33.7305 44.51 32.563C44.4983 32.4813 44.5058 32.3981 44.5319 32.3198C44.5579 32.2415 44.6018 32.1704 44.6602 32.112C44.7185 32.0537 44.7896 32.0097 44.8678 31.9836C44.9461 31.9574 45.0293 31.9499 45.111 31.9615H58.764C59.164 31.9615 59.393 32.1048 59.451 32.3915L78.9425 87.3455C79.1142 87.9188 78.9425 88.2052 78.4275 88.2045H67.2645C67.0729 88.2254 66.8801 88.176 66.7222 88.0655C66.5643 87.9549 66.4519 87.7907 66.406 87.6035L62.027 74.895ZM45.283 64.076H58.85L58.6565 63.4375L58.346 62.4265L58.1245 61.7165L57.771 60.5985L57.0195 58.245L56.3585 56.1585L54.642 50.7235C54.2148 49.3724 53.8047 48.016 53.412 46.6545L53.098 45.5495L52.731 44.243L52.171 42.218L52.066 41.8365H51.9805C51.5507 43.8975 51.0275 45.938 50.4125 47.9515L49.1385 52.0495L48.4375 54.3135L47.73 56.6055C47.6023 57.0195 47.4748 57.4288 47.3475 57.8335L46.9675 59.0325L46.5895 60.2035L46.2135 61.3455L45.8395 62.459C45.7155 62.8257 45.5917 63.1873 45.468 63.544L45.283 64.076ZM90.5335 41.0635C89.6577 41.0985 88.7845 40.9484 87.9707 40.6229C87.1569 40.2974 86.421 39.8038 85.811 39.1745C85.203 38.5175 84.7308 37.747 84.4213 36.9071C84.1118 36.0671 83.9712 35.1744 84.0075 34.28C83.9764 33.3946 84.1324 32.5125 84.4653 31.6914C84.7982 30.8704 85.3005 30.1287 85.9395 29.515C87.172 28.3318 88.8135 27.6697 90.522 27.6665L90.705 27.6685C92.766 27.6685 94.3833 28.2838 95.557 29.5145C96.1492 30.1541 96.6095 30.9043 96.9115 31.722C97.2135 32.5397 97.3513 33.409 97.317 34.28C97.3533 35.178 97.2086 36.0742 96.8915 36.9151C96.5744 37.7561 96.0913 38.5246 95.471 39.175C94.845 39.7919 94.1019 40.2774 93.2855 40.6028C92.469 40.9283 91.5957 41.0871 90.717 41.07L90.5335 41.0635ZM84.6085 87.3455V46.3015C84.6082 45.7862 84.8372 45.5285 85.2955 45.5285H95.8575C96.3152 45.5285 96.5442 45.7862 96.5445 46.3015V87.3455C96.5445 87.9188 96.3155 88.2052 95.8575 88.2045H85.3815C84.8935 88.2045 84.6367 87.9475 84.611 87.4335L84.6085 87.3455Z" fill="#FF9A00"/>
</g>
<defs>
<clipPath id="clip0_126_20">
<rect width="128" height="125" fill="white"/>
</clipPath>
</defs>
</svg>
