<svg width="132" height="122" viewBox="0 0 132 122" fill="none" xmlns="http://www.w3.org/2000/svg">
<g clip-path="url(#clip0_127_116)">
<path d="M103.121 64.485C87.2923 64.485 74.4612 77.3166 74.4612 93.1457C74.4612 108.975 87.2923 121.806 103.121 121.806C118.949 121.806 131.781 108.974 131.781 93.1457C131.781 77.3166 118.949 64.485 103.121 64.485ZM28.6597 64.4876C12.8316 64.4876 0 77.3166 0 93.1457C0 108.975 12.8316 121.806 28.6597 121.806C44.4888 121.806 57.3209 108.974 57.3209 93.1457C57.3209 77.3166 44.4888 64.4876 28.6597 64.4876ZM94.55 28.6597C94.55 44.4888 81.7184 57.322 65.8908 57.322C50.0617 57.322 37.2306 44.4888 37.2306 28.6597C37.2306 12.8321 50.0612 0 65.8903 0C81.7179 0 94.549 12.8332 94.549 28.6592" fill="#F06A6A"/>
</g>
<defs>
<clipPath id="clip0_127_116">
<rect width="131.781" height="122" fill="white"/>
</clipPath>
</defs>
</svg>
