<svg width="119" height="119" viewBox="0 0 119 119" fill="none" xmlns="http://www.w3.org/2000/svg">
<g clip-path="url(#clip0_127_120)">
<path d="M107.379 0H11.6211C5.20294 0 0 5.20294 0 11.6211V107.379C0 113.797 5.20294 119 11.6211 119H107.379C113.797 119 119 113.797 119 107.379V11.6211C119 5.20294 113.797 0 107.379 0Z" fill="url(#paint0_linear_127_120)"/>
<path d="M97.9519 15.47H72.8131C69.7324 15.47 67.235 17.9674 67.235 21.0481V61.9543C67.235 65.0351 69.7324 67.5325 72.8131 67.5325H97.9519C101.033 67.5325 103.53 65.0351 103.53 61.9543V21.0481C103.53 17.9674 101.033 15.47 97.9519 15.47Z" fill="white"/>
<path d="M46.1868 15.47H21.0481C17.9674 15.47 15.47 17.9674 15.47 21.0481V91.7043C15.47 94.7851 17.9674 97.2825 21.0481 97.2825H46.1868C49.2676 97.2825 51.765 94.7851 51.765 91.7043V21.0481C51.765 17.9674 49.2676 15.47 46.1868 15.47Z" fill="white"/>
</g>
<defs>
<linearGradient id="paint0_linear_127_120" x1="5950" y1="0" x2="5950" y2="11900" gradientUnits="userSpaceOnUse">
<stop stop-color="#0091E6"/>
<stop offset="1" stop-color="#0079BF"/>
</linearGradient>
<clipPath id="clip0_127_120">
<rect width="119" height="119" fill="white"/>
</clipPath>
</defs>
</svg>
