<svg width="131" height="131" viewBox="0 0 131 131" fill="none" xmlns="http://www.w3.org/2000/svg">
<g clip-path="url(#clip0_127_80)">
<path d="M0 0H131V131H0V0Z" fill="#FF0066"/>
<path d="M44.5769 42.1554C48.7202 42.095 52.0362 38.6977 51.9963 34.5538C51.9558 30.4094 48.5749 27.0771 44.4305 27.097C40.2861 27.117 36.9374 30.4815 36.9369 34.6259C36.9403 35.6231 37.141 36.6098 37.5275 37.529C37.914 38.4482 38.4787 39.2819 39.1889 39.9818C39.8991 40.6818 40.7408 41.2343 41.6655 41.6074C42.5903 41.9806 43.5797 42.1664 44.5769 42.1554ZM28.7361 82.467C28.3025 84.3211 28.0759 86.2175 28.0606 88.1215C28.0606 94.7498 31.6549 99.1511 39.2949 99.1511C45.63 99.1511 50.7702 95.389 54.4648 89.3108L52.2061 98.3759H64.7821L71.9768 69.5559C73.774 62.2511 77.2532 58.4628 82.5351 58.4628C86.6903 58.4628 89.274 61.046 89.274 65.3168C89.2944 66.6856 89.1051 68.0499 88.7131 69.3619L85.0083 82.6139C84.4783 84.4389 84.2137 86.3307 84.2228 88.231C84.2228 94.519 87.9276 99.1306 95.6771 99.1306C102.306 99.1306 107.588 94.865 110.507 84.6418L105.565 82.729C103.092 89.583 100.96 90.8193 99.277 90.8193C97.595 90.8193 96.6882 89.6986 96.6882 87.4501C96.7369 86.2705 96.9251 85.1007 97.2491 83.9653L100.849 71.0496C101.657 68.394 102.074 65.6348 102.086 62.859C102.086 53.1962 96.2431 48.1558 89.1639 48.1558C82.5351 48.1558 75.7968 54.1342 72.4272 60.4278L74.8952 49.1301H55.6904L52.9921 59.0861H61.984L56.4508 81.22C52.1012 90.8828 44.1158 91.0399 43.1149 90.8147C41.4692 90.4422 40.4212 89.8189 40.4212 87.6702C40.4693 85.9309 40.7333 84.2043 41.2072 82.53L49.6332 49.104H28.296L25.6028 59.06H34.474L28.7361 82.467Z" fill="white"/>
</g>
<defs>
<clipPath id="clip0_127_80">
<rect width="131" height="131" fill="white"/>
</clipPath>
</defs>
</svg>
