<svg width="128" height="125" viewBox="0 0 128 125" fill="none" xmlns="http://www.w3.org/2000/svg">
<g clip-path="url(#clip0_126_26)">
<path d="M22.6665 0H105.334C117.867 0 128 10.1335 128 22.6665V102.133C128 114.666 117.867 124.8 105.334 124.8H22.6665C10.1335 124.8 0 114.666 0 102.133V22.6665C0 10.1335 10.1335 0 22.6665 0Z" fill="#00005B"/>
<path d="M30.4 87.5199V32.6399C30.4 32.2664 30.56 32.0534 30.9335 32.0534L31.7075 32.0519L32.3065 32.0469L32.729 32.0389L33.179 32.0274L33.6625 32.0104L33.92 31.9999C34.4 31.9799 34.8875 31.9674 35.385 31.9569L36.9125 31.9249C37.0862 31.9209 37.2613 31.9162 37.438 31.9109L37.973 31.8934C38.453 31.8761 38.945 31.8627 39.449 31.8534L40.9955 31.8259L42.066 31.8024L42.6135 31.7864C43.7155 31.7514 44.794 31.7394 45.8645 31.7354L47.4665 31.7334C51.84 31.7334 55.4665 32.2664 58.4535 33.3864C61.1307 34.2958 63.5719 35.7898 65.6 37.7599C67.3182 39.4844 68.646 41.5578 69.4935 43.8399C70.2935 46.0799 70.72 48.3734 70.72 50.7734C70.72 55.3601 69.6533 59.1467 67.52 62.1334C65.3865 65.1199 62.4 67.3599 58.9335 68.6399C55.4275 69.9289 51.573 70.4199 47.3695 70.4514H45.845L45.2515 70.4454L44.871 70.4364L44.647 70.4269L44.446 70.4149L44.2665 70.3999C44.1514 70.3887 44.036 70.3801 43.9205 70.3739L43.6605 70.3624L43.3755 70.3549L42.9 70.3484L41.9735 70.3464V87.4664C42.0265 87.8399 41.76 88.1599 41.3865 88.2134H31.04C30.6135 88.2134 30.4 87.9999 30.4 87.5199ZM42.0265 42.3464V60.2664L42.6535 60.3114C43.137 60.3484 43.6216 60.3691 44.1065 60.3734H46.9335C49.0135 60.3734 51.0935 60.0534 53.0665 59.4134C54.7735 58.9334 56.2665 57.9199 57.44 56.5864C58.56 55.2534 59.0935 53.4399 59.0935 51.0934C59.1436 49.4267 58.718 47.7801 57.8665 46.3464C56.998 45.0179 55.786 43.9829 54.3255 43.3824L54.1335 43.3064C52.16 42.5064 50.0265 42.1864 47.84 42.2399L46.607 42.2414L46.0275 42.2449L45.474 42.2524L44.9485 42.2644C44.6922 42.2711 44.4472 42.2807 44.2135 42.2934C44.0989 42.2877 43.9842 42.283 43.8695 42.2794L43.55 42.2724L43.4 42.2714L43.117 42.2729L42.86 42.2799L42.741 42.2849L42.5225 42.2974L42.3305 42.3124L42.244 42.3204L42.0925 42.3379L42.0265 42.3464ZM78.1865 45.4399H87.52C88.0235 45.4399 88.4325 45.7729 88.611 46.2144L88.64 46.2934C88.8 46.7199 88.9065 47.1464 88.96 47.6264C89.0665 48.1599 89.1735 48.7464 89.2265 49.2799L89.2715 49.7959C89.3065 50.2364 89.3335 50.7049 89.3335 51.1999C90.861 49.4167 92.6927 47.9187 94.7435 46.7754L95.04 46.6134C97.4935 45.2264 100.32 44.5334 103.146 44.5334C103.52 44.4799 103.84 44.7464 103.893 45.1199V55.7334C103.893 56.1599 103.627 56.3199 103.04 56.3199C101.248 56.2699 99.41 56.4064 97.655 56.7714L97.28 56.8534C95.7333 57.1734 94.24 57.6534 92.8 58.2934C91.7865 58.7734 90.8265 59.4134 90.08 60.2664V87.4664C90.08 87.9999 89.8665 88.2134 89.3865 88.2134H78.88C78.4535 88.2664 78.08 87.9999 78.0265 87.5734V57.8134C78.0265 56.5334 78.0265 55.1999 77.9735 53.8134L77.9415 52.7734L77.8985 50.6934C77.8905 50.3467 77.8798 50.0001 77.8665 49.6534C77.8665 48.4264 77.76 47.2534 77.6535 46.0264C77.6 45.7599 77.76 45.4934 78.0265 45.4399C78.0265 45.3944 78.105 45.3879 78.161 45.4199L78.1865 45.4399Z" fill="#9999FF"/>
</g>
<defs>
<clipPath id="clip0_126_26">
<rect width="128" height="125" fill="white"/>
</clipPath>
</defs>
</svg>
