<svg width="139" height="71" viewBox="0 0 139 71" fill="none" xmlns="http://www.w3.org/2000/svg">
<path d="M6.52141 61.8348C4.45563 59.7947 2.81546 57.3647 1.69601 54.6858C0.576561 52.007 0.00012207 49.1325 0.00012207 46.2291C0.00012207 43.3258 0.576561 40.4513 1.69601 37.7724C2.81546 35.0935 4.45563 32.6636 6.52141 30.6235L30.1398 7.21357C33.6537 3.74182 38.2159 1.52808 43.1176 0.916425C48.0192 0.30477 52.9856 1.32946 57.2448 3.83123C59.8858 5.39498 59.8627 8.96265 57.6908 11.1171C55.5189 13.2716 51.9686 13.0863 49.0207 12.2291C47.104 11.6675 45.0718 11.6297 43.1355 12.1196C41.1993 12.6095 39.4296 13.6093 38.0107 15.0149L14.3923 38.4249C13.3593 39.4452 12.5392 40.6604 11.9794 42.0001C11.4196 43.3397 11.1314 44.7772 11.1314 46.2291C11.1314 47.681 11.4196 49.1185 11.9794 50.4582C12.5392 51.7979 13.3593 53.0131 14.3923 54.0334C18.736 58.3424 25.7903 58.3424 30.1398 54.0334L77.3709 7.21357C81.5655 3.07359 87.2219 0.752315 93.1155 0.752315C99.0091 0.752315 104.666 3.07359 108.86 7.21357L132.479 30.6235C134.544 32.6636 136.185 35.0935 137.304 37.7724C138.423 40.4513 139 43.3258 139 46.2291C139 49.1325 138.423 52.007 137.304 54.6858C136.185 57.3647 134.544 59.7947 132.479 61.8348C128.284 65.9748 122.628 68.296 116.734 68.296C110.84 68.296 105.184 65.9748 100.989 61.8348L93.1126 54.0334L83.2784 63.7866C79.7638 67.2574 75.2012 69.47 70.2996 70.0807C65.398 70.6913 60.432 69.6656 56.1734 67.1631C53.5266 65.6109 53.5498 62.0375 55.7216 59.883C57.8993 57.7285 61.4438 57.9138 64.3975 58.771C66.3134 59.3315 68.3444 59.3688 70.2796 58.8789C72.2147 58.389 73.9833 57.3898 75.4017 55.9852L85.5255 45.9482C87.5472 43.9516 90.2741 42.8321 93.1155 42.8321C95.9569 42.8321 98.6838 43.9516 100.705 45.9482L108.86 54.0334C113.204 58.3424 120.258 58.3424 124.608 54.0334C125.641 53.0131 126.461 51.7979 127.021 50.4582C127.58 49.1185 127.869 47.681 127.869 46.2291C127.869 44.7772 127.58 43.3397 127.021 42.0001C126.461 40.6604 125.641 39.4452 124.608 38.4249L100.989 15.0149C98.8918 12.9441 96.063 11.7829 93.1155 11.7829C90.168 11.7829 87.3392 12.9441 85.2418 15.0149L38.0107 61.8348C33.8161 65.9748 28.1596 68.296 22.2661 68.296C16.3725 68.296 10.716 65.9748 6.52141 61.8348Z" fill="black"/>
</svg>
