<svg width="114" height="76" viewBox="0 0 114 76" fill="none" xmlns="http://www.w3.org/2000/svg">
<path d="M95.2972 75.8396V40.6961C95.2972 33.2975 92.2187 29.6 86.2039 29.6C80.1964 29.6 77.1106 33.2975 77.1106 40.6961V75.8396H59.079V40.6961C59.079 33.2975 56.1536 29.6 50.1415 29.6C44.1304 29.6 41.0464 33.2975 41.0464 40.6961V75.8396H23.167V38.696C23.167 30.9893 25.787 25.2826 31.1819 21.2752C35.8056 17.7318 42.2798 16.0398 50.1406 16.0398C58.3105 16.0398 64.1676 18.0399 68.0182 22.2032C71.2535 18.0399 77.2683 16.0398 86.0499 16.0398C94.0647 16.0398 100.386 17.7318 105.01 21.2752C110.404 25.2826 113.024 30.9893 113.024 38.696V75.99H95.2954V75.8396H95.2972Z" fill="url(#paint0_radial_130_11)"/>
<path d="M24.8635 24.9744L23.0138 34.2245C39.9679 39.9257 55.9968 34.3749 64.4756 19.5813C51.9893 10.952 40.4283 19.7354 24.8635 24.9744Z" fill="#58595B"/>
<path d="M24.8635 22.6663C24.2463 26.2097 23.7832 29.5991 23.167 33.1452C39.3499 38.696 55.2256 33.9155 63.7036 19.4273C52.911 6.94282 40.8932 17.2677 24.8635 22.6663Z" fill="url(#paint1_linear_130_11)"/>
<path d="M44.1303 26.8242C36.7317 25.2827 28.7159 29.1397 23.1679 33.1453C19.6226 7.25373 35.6533 7.86726 56.6112 14.3406C55.2256 20.6617 52.911 29.1397 48.9063 34.2246C48.7531 30.8316 47.2125 28.5216 44.1303 26.8242Z" fill="url(#paint2_linear_130_11)"/>
<path d="M0.973816 22.6663C28.0997 6.32567 43.3591 3.24532 74.9546 0.0100098C38.2714 28.9819 37.3462 22.6663 0.973816 22.6663Z" fill="url(#paint3_linear_130_11)"/>
<path d="M74.9546 0.1604L45.8232 21.2751" stroke="#4A4A4C" stroke-width="0.0625"/>
<path opacity="0.23" d="M40.2752 11.4107C39.8121 8.17358 40.5833 14.8037 40.2752 11.4107V11.4107Z" fill="#231F20"/>
<path d="M0.973816 22.6662L45.8232 21.2751" stroke="#A8ABAD" stroke-width="0.0625"/>
<path d="M37.5011 11.7205C29.7944 13.8782 4.51907 19.4272 4.20823 22.6661C3.43882 28.6755 4.05688 38.2319 4.05688 38.2319" stroke="#F16922" stroke-width="0.0625"/>
<path d="M6.36873 61.1964C3.59288 54.2618 0.202603 46.5532 4.20823 36.9968C6.83001 45.9352 6.36873 52.7175 6.36873 61.1964Z" fill="#F16922"/>
<path d="M36.2251 10.6712C36.8667 10.4446 37.4793 10.5171 37.5926 10.8379C37.7068 11.1596 37.2809 11.6046 36.6393 11.8312C35.9967 12.0632 35.385 11.9871 35.2708 11.6644C35.1557 11.3454 35.5826 10.8996 36.2251 10.6712Z" fill="#6D6E70"/>
<defs>
<radialGradient id="paint0_radial_130_11" cx="0" cy="0" r="1" gradientUnits="userSpaceOnUse" gradientTransform="translate(212.2 49.4705) scale(190.095 190.095)">
<stop stop-color="#FAAF40"/>
<stop offset="0.043" stop-color="#F9A538"/>
<stop offset="0.112" stop-color="#F89D31"/>
<stop offset="0.227" stop-color="#F89A2F"/>
<stop offset="0.528" stop-color="#F7922D"/>
<stop offset="1" stop-color="#F37B28"/>
</radialGradient>
<linearGradient id="paint1_linear_130_11" x1="23.1679" y1="24.4534" x2="63.6446" y2="24.4534" gradientUnits="userSpaceOnUse">
<stop stop-color="#929497"/>
<stop offset="0.124" stop-color="#757578"/>
<stop offset="0.279" stop-color="#575658"/>
<stop offset="0.44" stop-color="#403E3F"/>
<stop offset="0.609" stop-color="#302D2E"/>
<stop offset="0.788" stop-color="#262223"/>
<stop offset="1" stop-color="#231F20"/>
</linearGradient>
<linearGradient id="paint2_linear_130_11" x1="30.9308" y1="10.9494" x2="47.7354" y2="34.9496" gradientUnits="userSpaceOnUse">
<stop stop-color="#231F20"/>
<stop offset="1" stop-color="#231F20" stop-opacity="0"/>
</linearGradient>
<linearGradient id="paint3_linear_130_11" x1="0.973816" y1="11.6299" x2="74.9546" y2="11.6299" gradientUnits="userSpaceOnUse">
<stop stop-color="#929497"/>
<stop offset="0.124" stop-color="#757578"/>
<stop offset="0.279" stop-color="#575658"/>
<stop offset="0.44" stop-color="#403E3F"/>
<stop offset="0.609" stop-color="#302D2E"/>
<stop offset="0.788" stop-color="#262223"/>
<stop offset="1" stop-color="#231F20"/>
</linearGradient>
</defs>
</svg>
