<svg width="154" height="150" viewBox="0 0 154 150" fill="none" xmlns="http://www.w3.org/2000/svg">
<g clip-path="url(#clip0_127_289)">
<path d="M78.7907 85.7143C102.526 85.7143 121.767 66.5265 121.767 42.8571C121.767 19.1878 102.526 0 78.7907 0C55.0553 0 35.8139 19.1878 35.8139 42.8571C35.8139 66.5265 55.0553 85.7143 78.7907 85.7143Z" fill="#036C70"/>
<path d="M114.605 121.428C136.362 121.428 154 103.84 154 82.1427C154 60.4458 136.362 42.8569 114.605 42.8569C92.8472 42.8569 75.2093 60.4458 75.2093 82.1427C75.2093 103.84 92.8472 121.428 114.605 121.428Z" fill="#1A9BA1"/>
<path d="M84.1628 150C100.975 150 114.605 136.409 114.605 119.643C114.605 102.877 100.975 89.2856 84.1628 89.2856C67.3502 89.2856 53.7209 102.877 53.7209 119.643C53.7209 136.409 67.3502 150 84.1628 150Z" fill="#37C6D0"/>
<path opacity="0.1" d="M85.9535 38.6788V114.893C85.9357 117.541 84.3264 119.92 81.8707 120.929C81.0888 121.259 80.2485 121.429 79.3995 121.429H53.7567C53.7209 120.822 53.7209 120.25 53.7209 119.643C53.709 119.047 53.7329 118.451 53.7926 117.857C54.4481 106.441 61.5007 96.3684 72.0219 91.8216V85.1787C48.6064 81.4784 32.6323 59.5496 36.3429 36.1992C36.3687 36.0375 36.3953 35.8759 36.4229 35.7145C36.6011 34.51 36.8523 33.3173 37.175 32.1431H79.3996C83.0135 32.1568 85.9397 35.0749 85.9535 38.6788Z" fill="black"/>
<path opacity="0.2" d="M75.8182 35.7144H36.4228C32.4431 59.0226 48.1647 81.1349 71.538 85.1035C72.2457 85.2237 72.9564 85.3261 73.6693 85.4108C62.567 90.6608 54.4766 105.572 53.789 117.857C53.7294 118.45 53.7054 119.047 53.7173 119.643C53.7173 120.25 53.7173 120.821 53.7531 121.429C53.8177 122.629 53.9734 123.823 54.2187 125H75.8145C78.4701 124.982 80.8559 123.377 81.867 120.929C82.1978 120.149 82.3683 119.311 82.3684 118.464V42.2501C82.3548 38.6476 79.4307 35.7301 75.8182 35.7144Z" fill="black"/>
<path opacity="0.2" d="M75.8182 35.7144H36.4228C32.444 59.0248 48.168 81.1381 71.5435 85.1059C72.0216 85.1871 72.5011 85.2601 72.9817 85.3251C62.2375 90.9537 54.4659 105.829 53.7926 117.857H75.8182C79.4264 117.83 82.3448 114.92 82.3721 111.322V42.2501C82.3584 38.6462 79.4321 35.7281 75.8182 35.7144Z" fill="black"/>
<path opacity="0.2" d="M72.2367 35.7144H36.4228C32.6657 57.7196 46.4929 78.911 68.1898 84.4001C59.9743 93.7604 54.9354 105.47 53.7926 117.857H72.2368C75.8507 117.844 78.777 114.925 78.7908 111.322V42.2501C78.7888 38.6414 75.8556 35.7164 72.2367 35.7144Z" fill="black"/>
<path d="M6.5647 35.7144H72.226C75.8516 35.7144 78.7907 38.6453 78.7907 42.2608V107.739C78.7907 111.355 75.8516 114.286 72.226 114.286H6.5647C2.93912 114.286 0 111.355 0 107.739V42.2608C0 38.6453 2.93912 35.7144 6.5647 35.7144Z" fill="url(#paint0_linear_127_289)"/>
<path d="M29.3209 74.1997C27.7825 73.1821 26.4974 71.8274 25.564 70.239C24.6595 68.5785 24.2087 66.7101 24.2567 64.8211C24.1762 62.2635 25.0417 59.7657 26.6885 57.8033C28.419 55.8385 30.6558 54.3835 33.1565 53.5961C36.0065 52.6606 38.9916 52.1997 41.9918 52.2318C45.9372 52.0881 49.8771 52.6382 53.6313 53.8569V62.0712C52.0001 61.0858 50.2234 60.3626 48.3666 59.9283C46.3519 59.4356 44.2846 59.1886 42.2102 59.1926C40.0227 59.1125 37.8492 59.5713 35.8819 60.5283C34.363 61.1816 33.3781 62.6717 33.3749 64.3212C33.3687 65.3218 33.7542 66.2853 34.4493 67.0069C35.2704 67.8577 36.2416 68.5502 37.3145 69.0498C38.5083 69.6426 40.299 70.4308 42.6866 71.4141C42.9495 71.497 43.2057 71.5996 43.453 71.7213C45.8029 72.6371 48.0698 73.7519 50.229 75.0534C51.8641 76.0588 53.2364 77.4371 54.233 79.0748C55.2547 80.9313 55.75 83.0302 55.6656 85.1463C55.7822 87.7721 54.9766 90.3563 53.3878 92.4534C51.8041 94.3814 49.6868 95.8023 47.2994 96.5391C44.4913 97.4168 41.5605 97.8412 38.6181 97.7962C35.9781 97.8082 33.342 97.5931 30.739 97.1534C28.5412 96.7947 26.3964 96.1662 24.3534 95.2819V86.6212C26.3063 88.012 28.4879 89.0515 30.8 89.6927C33.1042 90.4087 35.4994 90.7912 37.9126 90.8284C40.1461 90.9694 42.3756 90.4976 44.3591 89.4641C45.7486 88.6822 46.5937 87.2012 46.5581 85.6105C46.5674 84.5037 46.1284 83.4401 45.3405 82.6606C44.3607 81.7014 43.2263 80.9131 41.9847 80.3284C40.5522 79.6141 38.4427 78.6725 35.6564 77.5034C33.4398 76.6147 31.3175 75.508 29.3209 74.1997Z" fill="white"/>
</g>
<defs>
<linearGradient id="paint0_linear_127_289" x1="13.6875" y1="30.5991" x2="64.8885" y2="119.525" gradientUnits="userSpaceOnUse">
<stop stop-color="#058F92"/>
<stop offset="0.5" stop-color="#038489"/>
<stop offset="1" stop-color="#026D71"/>
</linearGradient>
<clipPath id="clip0_127_289">
<rect width="154" height="150" fill="white"/>
</clipPath>
</defs>
</svg>
