<svg width="110" height="100" viewBox="0 0 110 100" fill="none" xmlns="http://www.w3.org/2000/svg">
<path d="M24.0023 3.88067L55 0.626221L85.9977 3.88153L110 35.8348L55 99.3736L0 35.8348L24.0023 3.88067Z" fill="#FDB300"/>
<path d="M22.2793 35.835L55 99.3737L0 35.835H22.2793ZM87.7207 35.835L55 99.3737L110 35.835H87.7207Z" fill="#EA6C00"/>
<path d="M22.2793 35.835H87.7207L55 99.3737L22.2793 35.835Z" fill="#FDAD00"/>
<path d="M55 0.626221L24.0023 3.88067L22.2793 35.8348L55 0.626221ZM55 0.626221L85.9977 3.88067L87.7207 35.8348L55 0.626221Z" fill="#FDD231"/>
<path d="M110 35.835L85.9977 3.88086L87.7207 35.835H110Z" fill="#FDAD00"/>
<path d="M55 0.626221L22.2793 35.8348H87.7207L55 0.626221Z" fill="#FEEEB7"/>
<path d="M0 35.835L24.0023 3.88086L22.2793 35.835H0Z" fill="#FDAD00"/>
</svg>
