<svg width="135" height="95" viewBox="0 0 135 95" fill="none" xmlns="http://www.w3.org/2000/svg">
<path d="M119.042 54.1599C117.757 54.1717 116.477 54.3302 115.228 54.6324C112.902 45.4947 107.998 37.2187 101.099 30.7908C94.2005 24.363 85.599 20.0546 76.32 18.3793C75.4968 18.2306 74.6696 18.1049 73.8394 18.0024C73.9856 13.3618 74.1994 7.99552 81.0281 3.17489L79.9481 0.452393C79.9481 0.452393 66.6169 4.58677 65.1038 15.9774C64.4456 12.878 58.2413 9.00239 55.1644 8.26552L53.6344 10.7293C53.6344 10.7293 57.7069 12.7655 58.7025 18.3849C49.424 20.0552 40.8214 24.3581 33.9199 30.7808C27.0185 37.2035 22.1093 45.4752 19.7775 54.6099C17.7454 54.1068 15.6341 54.009 13.5641 54.3219C11.4942 54.6348 9.50614 55.3523 7.7135 56.4336C5.92087 57.5148 4.35875 58.9385 3.11633 60.6234C1.87392 62.3084 0.975545 64.2215 0.472501 66.2536C-0.0305444 68.2858 -0.128407 70.3971 0.1845 72.467C0.497408 74.537 1.21496 76.525 2.29618 78.3176C3.3774 80.1103 4.80112 81.6724 6.48605 82.9148C8.17098 84.1572 10.0841 85.0556 12.1163 85.5586C15.3298 86.3524 18.7106 86.1283 21.7913 84.9174C23.1512 88.3106 24.887 91.5408 26.9663 94.5474L40.1963 85.6318C36.6075 81.0924 34.4588 74.4493 34.0819 67.7836C33.6881 60.5049 35.4544 53.2936 40.1006 49.0524C49.6744 40.9018 60.1031 44.6199 66.6113 52.4274H68.3663C74.8913 44.6199 85.3369 40.9074 94.8769 49.0524C99.5175 53.2936 101.289 60.5161 100.896 67.7836C100.53 74.4493 98.3756 81.0924 94.7813 85.6318L108.017 94.5474C110.1 91.5413 111.84 88.3111 113.203 84.9174C117.134 86.4704 121.521 86.3982 125.399 84.7167C129.277 83.0352 132.328 79.8822 133.881 75.9511C135.434 72.0201 135.361 67.6332 133.68 63.7554C131.998 59.8776 128.845 56.8267 124.914 55.2736C123.046 54.531 121.053 54.1529 119.042 54.1599ZM15.6713 74.7699C14.4241 74.7699 13.228 74.2745 12.3461 73.3926C11.4642 72.5107 10.9688 71.3146 10.9688 70.0674C10.9688 68.8202 11.4642 67.6241 12.3461 66.7422C13.228 65.8603 14.4241 65.3649 15.6713 65.3649C16.6116 65.3663 17.5302 65.6484 18.3094 66.1749C18.3469 68.6499 18.5156 71.1136 18.8156 73.5661C17.9831 74.3199 16.7119 74.8768 15.6713 74.7699ZM119.323 74.7699C118.164 74.7654 117.047 74.335 116.184 73.5605C116.478 71.1069 116.647 68.64 116.691 66.1693C117.398 65.6893 118.222 65.4113 119.075 65.3652C119.929 65.3191 120.778 65.5067 121.533 65.9077C122.288 66.3087 122.918 66.908 123.358 67.641C123.797 68.374 124.028 69.2129 124.026 70.0674C124.065 72.638 121.871 74.8936 119.323 74.7699Z" fill="#008323"/>
</svg>
