<svg width="103" height="103" viewBox="0 0 103 103" fill="none" xmlns="http://www.w3.org/2000/svg">
<path d="M51.5 0C79.9606 0 103 23.0394 103 51.5C103 79.9606 79.9606 103 51.5 103C23.0394 103 0 79.9606 0 51.5C0 23.0394 23.0394 0 51.5 0ZM63.5039 17.0376C61.3739 16.3601 59.0508 17.2312 57.8892 19.0703C55.8471 18.6808 53.7725 18.4864 51.6935 18.4897C33.3978 18.4897 18.6832 33.3008 18.6832 51.5C18.6832 64.2784 25.9435 75.4109 36.592 80.8317C36.3019 82.9613 37.657 85.0913 39.7866 85.8658C40.2706 86.0589 40.8516 86.1559 41.3356 86.1559C42.1101 86.1559 42.8846 85.9628 43.5622 85.5753C44.3363 85.1878 44.9173 84.6073 45.4013 83.8327C45.5948 83.5423 45.7887 83.2518 45.8853 82.8647L49.6609 71.7319L62.826 34.2688L66.6016 23.136C66.6981 22.8459 66.7951 22.4588 66.7951 22.0714C66.8917 21.0068 66.6016 20.0387 66.1175 19.1673C65.5366 18.1992 64.6651 17.4251 63.5039 17.0376ZM72.8938 26.4275L68.3441 40.174C70.5703 43.3686 71.8288 47.3374 71.8288 51.5C71.8288 60.4059 66.2141 67.8601 58.3732 70.6677L53.8231 84.4137C70.9577 83.1552 84.4133 68.9247 84.5103 51.5C84.5103 41.4322 79.9606 32.4297 72.8938 26.4275ZM51.5 31.1712C52.081 31.1712 52.7585 31.1712 53.3391 31.2677L40.5611 68.6342C34.9464 64.956 31.1712 58.6637 31.1712 51.5C31.1712 40.2706 40.2706 31.1712 51.5 31.1712Z" fill="#303030"/>
</svg>
