<svg width="97" height="97" viewBox="0 0 97 97" fill="none" xmlns="http://www.w3.org/2000/svg">
<path d="M48.4999 0.583252C22.0978 0.583252 0.583252 22.0978 0.583252 48.4999C0.583252 74.902 22.0978 96.4166 48.4999 96.4166C74.902 96.4166 96.4166 74.902 96.4166 48.4999C96.4166 22.0978 74.902 0.583252 48.4999 0.583252ZM5.42284 48.4999C5.42284 42.2708 6.7645 36.3291 9.16034 30.9624L29.7166 87.2645C15.3416 80.2687 5.42284 65.5583 5.42284 48.4999ZM48.4999 91.577C44.2833 91.577 40.2103 90.9541 36.3291 89.8041L49.2666 52.2374L62.4916 88.5103C62.5874 88.702 62.6833 88.9416 62.7791 89.0853C58.3228 90.7145 53.5312 91.577 48.4999 91.577ZM54.4416 28.2791C57.0291 28.1353 59.377 27.8478 59.377 27.8478C61.677 27.5603 61.4374 24.1583 59.0895 24.302C59.0895 24.302 52.0937 24.8291 47.5895 24.8291C43.3728 24.8291 36.2333 24.302 36.2333 24.302C33.9333 24.2062 33.6458 27.752 35.9937 27.8958C35.9937 27.8958 38.1978 28.1833 40.4978 28.327L47.2062 46.727L37.7666 74.9978L22.0978 28.2791C24.6853 28.1833 27.0333 27.8958 27.0333 27.8958C29.3333 27.6083 29.0937 24.2062 26.7458 24.3499C26.7458 24.3499 19.7499 24.877 15.2458 24.877C14.4312 24.877 13.4728 24.877 12.4666 24.8291C20.2291 13.1374 33.4541 5.42284 48.4999 5.42284C59.7124 5.42284 69.9187 9.68742 77.5853 16.7312C77.3937 16.7312 77.202 16.6833 77.0103 16.6833C72.7937 16.6833 69.7749 20.3728 69.7749 24.3499C69.7749 27.8958 71.8353 30.9145 73.9916 34.4603C75.6208 37.3353 77.5374 41.0249 77.5374 46.3437C77.5374 50.0333 76.0999 54.2978 74.2791 60.2874L69.9666 74.6624L54.4416 28.2791ZM86.3062 27.8478C91.6857 37.6983 93.0083 49.2594 89.9924 60.0703C86.9764 70.8812 79.8601 80.0881 70.1583 85.7312L83.3353 47.6853C85.7791 41.552 86.5937 36.6166 86.5937 32.2562C86.5937 30.6749 86.4978 29.1895 86.3062 27.8478Z" fill="black"/>
</svg>
